<?xml version="1.0" encoding="UTF-8"?>
<svg version="1.1" xmlns="http://www.w3.org/2000/svg" width="1000" height="667">
<path d="M0 0 C330 0 660 0 1000 0 C1000 220.11 1000 440.22 1000 667 C670 667 340 667 0 667 C0 446.89 0 226.78 0 0 Z " fill="#FEFEFE" transform="translate(0,0)"/>
<path d="M0 0 C0.84691406 -0.01160156 1.69382812 -0.02320313 2.56640625 -0.03515625 C12.87380118 0.01219778 20.72062402 3.16547602 28.125 10.375 C36.54593431 20.55929235 37.23418946 31.677394 36.125 44.375 C34.4156312 53.51687743 29.41117143 60.7467247 21.74609375 66.0078125 C11.9923312 71.63189305 1.14171503 71.51048076 -9.875 70.375 C-19.58591036 67.73846268 -25.91268583 61.5210896 -31.25 53.2421875 C-34.06887286 47.62401729 -34.24565252 41.9803735 -34.3125 35.8125 C-34.3228125 35.02117676 -34.333125 34.22985352 -34.34375 33.41455078 C-34.20323518 23.99810643 -31.33018759 16.26634891 -24.875 9.375 C-17.16863613 2.45180319 -10.24284244 -0.13904311 0 0 Z " fill="#20201E" transform="translate(712.875,287.625)"/>
<path d="M0 0 C45.21 0 90.42 0 137 0 C137 2.64 137 5.28 137 8 C101.39503861 24.09297096 63.56533625 32.12982821 24.9375 36.8125 C23.92171875 36.9367334 22.9059375 37.0609668 21.859375 37.18896484 C14.4447463 38.01784589 7.57172023 38 0 38 C0 25.46 0 12.92 0 0 Z " fill="#019577" transform="translate(77,219)"/>
<path d="M0 0 C5.94 0 11.88 0 18 0 C18.33 12.54 18.66 25.08 19 38 C21.31 36.02 23.62 34.04 26 32 C32.3123415 28.2125951 38.76656046 28.21219965 46 29 C52.11556658 30.66788179 56.72023731 34.6208022 60 40 C63.12921066 46.77995643 63.39971555 52.53138965 63.29296875 59.9375 C63.28872391 61.05817871 63.28447906 62.17885742 63.28010559 63.33349609 C63.26340311 66.88924874 63.22576568 70.44442059 63.1875 74 C63.17244231 76.42056469 63.1587558 78.84113833 63.14648438 81.26171875 C63.11352706 87.17470065 63.06180241 93.08725208 63 99 C57.06 99 51.12 99 45 99 C44.98541748 97.60765137 44.97083496 96.21530273 44.95581055 94.78076172 C44.89773456 89.6032575 44.82050158 84.42618393 44.73754883 79.24902344 C44.70434334 77.01048789 44.67629784 74.77186951 44.65356445 72.53320312 C44.61993855 69.31083961 44.56761728 66.08923226 44.51171875 62.8671875 C44.50532883 61.87008759 44.4989389 60.87298767 44.49235535 59.84567261 C44.37987021 54.50092612 44.02021641 50.6081556 41 46 C37.6466301 43.36520936 34.12471594 43.57330525 30 44 C25.11808891 46.29736992 23.0730937 48.98580861 20.83166504 53.67626953 C19.35822365 57.79316815 19.39654618 61.85358454 19.390625 66.1875 C19.36582062 67.60216553 19.36582062 67.60216553 19.34051514 69.04541016 C19.29228921 72.03034136 19.27072077 75.01476406 19.25 78 C19.22181907 80.03518148 19.19188869 82.07033954 19.16015625 84.10546875 C19.0832725 89.07054069 19.04251677 94.03404171 19 99 C12.73 99 6.46 99 0 99 C0 66.33 0 33.66 0 0 Z " fill="#222220" transform="translate(604,258)"/>
<path d="M0 0 C5.2709519 4.66543765 8.60247709 9.30306728 9.21221924 16.50747681 C9.32720271 19.58652626 9.38124882 22.6611631 9.4140625 25.7421875 C9.43342865 26.86569611 9.4527948 27.98920471 9.4727478 29.14675903 C9.53235875 32.72276298 9.57885548 36.29879943 9.625 39.875 C9.66319674 42.30470126 9.70224946 44.73438923 9.7421875 47.1640625 C9.83804531 53.10926657 9.92214497 59.05453402 10 65 C4.72 65 -0.56 65 -6 65 C-6.495 61.04 -6.495 61.04 -7 57 C-7.51949219 57.48210937 -8.03898437 57.96421875 -8.57421875 58.4609375 C-9.27160156 59.09257812 -9.96898437 59.72421875 -10.6875 60.375 C-11.37199219 61.00148438 -12.05648437 61.62796875 -12.76171875 62.2734375 C-19.52989776 67.49426669 -27.89266634 66.63427485 -36 66 C-42.83805189 64.38503408 -46.39025213 59.7706004 -50 54 C-52.34014442 49.31971116 -51.67416535 42.59360426 -50.38671875 37.640625 C-47.63145167 31.37755093 -42.86615236 27.79742171 -36.7734375 24.96484375 C-27.31976838 21.73859159 -16.85046246 22.73251077 -7 23 C-7.25662245 21.55989519 -7.53090821 20.1229313 -7.8125 18.6875 C-7.96332031 17.88699219 -8.11414063 17.08648437 -8.26953125 16.26171875 C-9.09378833 13.70960726 -9.90725641 12.64683212 -12 11 C-20.22570317 8.25809894 -29.27703504 9.4143377 -37 13 C-38.98 13.66 -40.96 14.32 -43 15 C-43.33 10.38 -43.66 5.76 -44 1 C-31.93278096 -5.03360952 -11.8925595 -8.3975075 0 0 Z " fill="#21211F" transform="translate(420,292)"/>
<path d="M0 0 C7.18904983 4.53268538 11.40946396 10.58965743 13.6640625 18.6796875 C14.6640625 24.6796875 14.6640625 24.6796875 14.6640625 37.6796875 C-0.5159375 37.6796875 -15.6959375 37.6796875 -31.3359375 37.6796875 C-28.84494628 46.22096018 -28.84494628 46.22096018 -23.3359375 51.6796875 C-16.52665059 54.95737815 -8.61267652 54.70019365 -1.5234375 52.3046875 C-0.1261843 51.76669402 1.26972126 51.22518359 2.6640625 50.6796875 C4.9871587 49.96985255 7.32261072 49.3273231 9.6640625 48.6796875 C9.6640625 53.2996875 9.6640625 57.9196875 9.6640625 62.6796875 C-1.72453374 68.02887664 -14.57095642 69.95104281 -26.96875 66.73828125 C-37.03204199 62.71548658 -43.12330446 57.05643026 -47.45703125 47.10546875 C-48.68622539 42.31434316 -48.66492517 37.73120279 -48.6484375 32.8046875 C-48.66455078 31.84949219 -48.68066406 30.89429688 -48.69726562 29.91015625 C-48.70398105 20.11906932 -45.74612834 12.18599322 -39.3359375 4.6796875 C-28.03136742 -4.82182391 -13.37239015 -6.37981956 0 0 Z " fill="#1F1F1D" transform="translate(855.3359375,290.3203125)"/>
<path d="M0 0 C0 22.11 0 44.22 0 67 C-28.71 67 -57.42 67 -87 67 C-87 66.34 -87 65.68 -87 65 C-84.74145623 63.31070772 -82.47612337 61.73925781 -80.125 60.1875 C-78.64592367 59.19059757 -77.16810473 58.19182759 -75.69140625 57.19140625 C-74.91812988 56.66820801 -74.14485352 56.14500977 -73.34814453 55.60595703 C-61.23435795 47.32102377 -49.5341814 38.45327694 -37.92382812 29.48291016 C-36.15730649 28.12125376 -34.38506226 26.76763852 -32.609375 25.41796875 C-22.74238574 17.89621216 -13.05778126 10.13241856 -3.58984375 2.11328125 C-1 0 -1 0 0 0 Z " fill="#069779" transform="translate(214,290)"/>
<path d="M0 0 C6.27 0 12.54 0 19 0 C19.01458252 1.39234863 19.02916504 2.78469727 19.04418945 4.21923828 C19.10226544 9.3967425 19.17949842 14.57381607 19.26245117 19.75097656 C19.29565666 21.98951211 19.32370216 24.22813049 19.34643555 26.46679688 C19.38006145 29.68916039 19.43238272 32.91076774 19.48828125 36.1328125 C19.49467117 37.12991241 19.5010611 38.12701233 19.50764465 39.15432739 C19.61973513 44.48032151 19.94446779 48.42864285 23 53 C26.74371358 54.87185679 30.92292248 54.52607452 35 54 C39.28952586 51.66025862 41.05223877 49.64608406 42.6171875 45.0625 C45.01765205 36.59344529 44.57806657 27.60763019 44.6875 18.875 C44.72072473 17.04164301 44.75521903 15.20830857 44.79101562 13.375 C44.87768337 8.91664995 44.93824633 4.4590405 45 0 C50.94 0 56.88 0 63 0 C63 22.44 63 44.88 63 68 C57.06 68 51.12 68 45 68 C45 65.69 45 63.38 45 61 C44.22914063 61.49371094 43.45828125 61.98742187 42.6640625 62.49609375 C41.66117187 63.13675781 40.65828125 63.77742188 39.625 64.4375 C38.62726563 65.07558594 37.62953125 65.71367187 36.6015625 66.37109375 C32.23898509 69.10261744 28.87345692 69.24832895 23.8125 69.3125 C22.6977832 69.35600586 22.6977832 69.35600586 21.56054688 69.40039062 C14.51263299 69.48069113 10.34718451 67.29383941 5.25 62.3125 C-0.19702704 55.13083954 -0.42125082 46.8598421 -0.29296875 38.18359375 C-0.28872391 37.08652603 -0.28447906 35.98945831 -0.28010559 34.85914612 C-0.26342927 31.38500522 -0.22579717 27.91146301 -0.1875 24.4375 C-0.17243891 22.06966989 -0.15875301 19.7018306 -0.14648438 17.33398438 C-0.11356187 11.55576196 -0.06185597 5.77798218 0 0 Z " fill="#272825" transform="translate(444,289)"/>
<path d="M0 0 C5.33221293 3.16600143 8.47190157 8.33907937 10.125 14.26171875 C10.5240214 18.35872234 10.47466965 22.42604376 10.41796875 26.5390625 C10.41372391 27.70554825 10.40947906 28.872034 10.40510559 30.0738678 C10.38837522 33.78255749 10.35073221 37.49069457 10.3125 41.19921875 C10.29744593 43.72069525 10.28375879 46.24218031 10.27148438 48.76367188 C10.23848997 54.92989892 10.18674553 61.09571528 10.125 67.26171875 C4.515 67.26171875 -1.095 67.26171875 -6.875 67.26171875 C-6.88958252 65.93519287 -6.90416504 64.60866699 -6.91918945 63.24194336 C-6.97734122 58.30108235 -7.05457334 53.36066903 -7.13745117 48.42016602 C-7.17062117 46.28547453 -7.19867758 44.15069702 -7.22143555 42.01586914 C-7.25512717 38.93989544 -7.30745103 35.86470449 -7.36328125 32.7890625 C-7.36967117 31.84087143 -7.3760611 30.89268036 -7.38264465 29.91575623 C-7.52272972 23.54350722 -8.18324593 18.24187504 -12.625 13.32421875 C-15.93391299 11.7616765 -18.25497512 11.8248192 -21.875 12.26171875 C-27.08497533 15.06709008 -30.00670561 17.73600952 -31.92724609 23.32250977 C-33.13085494 27.69373722 -33.22526839 31.96478405 -33.2890625 36.4765625 C-33.30842865 37.33230362 -33.3277948 38.18804474 -33.3477478 39.06971741 C-33.40710914 41.77945258 -33.45375366 44.48923125 -33.5 47.19921875 C-33.53821985 49.04624159 -33.57727387 50.89324736 -33.6171875 52.74023438 C-33.71433132 57.24730263 -33.7942431 61.75420848 -33.875 66.26171875 C-39.815 66.26171875 -45.755 66.26171875 -51.875 66.26171875 C-51.875 44.15171875 -51.875 22.04171875 -51.875 -0.73828125 C-46.265 -0.73828125 -40.655 -0.73828125 -34.875 -0.73828125 C-34.545 1.57171875 -34.215 3.88171875 -33.875 6.26171875 C-33.45089844 5.86339844 -33.02679687 5.46507812 -32.58984375 5.0546875 C-22.95077308 -3.65225326 -11.96447103 -5.46454206 0 0 Z " fill="#1E1E1C" transform="translate(575.875,289.73828125)"/>
<path d="M0 0 C17.16 0 34.32 0 52 0 C52 4.62 52 9.24 52 14 C41.11 14 30.22 14 19 14 C19 21.59 19 29.18 19 37 C29.23 37 39.46 37 50 37 C50 41.62 50 46.24 50 51 C39.77 51 29.54 51 19 51 C19 64.53 19 78.06 19 92 C12.73 92 6.46 92 0 92 C0 61.64 0 31.28 0 0 Z " fill="#1F1F1D" transform="translate(260,265)"/>
<path d="M0 0 C-0.33 4.95 -0.66 9.9 -1 15 C-3.475 14.505 -3.475 14.505 -6 14 C-9.58399407 13.58307147 -9.58399407 13.58307147 -13 14 C-16.49670206 17.28378812 -16.47344235 20.62635471 -16.6875 25.25 C-16.790625 27.4775 -16.89375 29.705 -17 32 C-12.05 32 -7.1 32 -2 32 C-2 36.29 -2 40.58 -2 45 C-6.95 45 -11.9 45 -17 45 C-17 63.15 -17 81.3 -17 100 C-22.94 100 -28.88 100 -35 100 C-35 81.85 -35 63.7 -35 45 C-39.29 45 -43.58 45 -48 45 C-48 40.71 -48 36.42 -48 32 C-43.71 32 -39.42 32 -35 32 C-35.03480469 30.9378125 -35.06960938 29.875625 -35.10546875 28.78125 C-35.3151099 19.73352287 -35.1865335 13.1928694 -30.3125 5.25 C-22.17867296 -2.66399388 -10.55723672 -2.63930918 0 0 Z " fill="#20201E" transform="translate(802,257)"/>
<path d="M0 0 C0.67915262 4.50024362 0.90221 8.51988291 0 13 C-3.09436239 16.60710837 -6.90128994 18.66433802 -11 21 C-12.92511062 22.27904768 -14.84178481 23.57088011 -16.75 24.875 C-17.75804687 25.54015625 -18.76609375 26.2053125 -19.8046875 26.890625 C-21.98375618 28.32913 -24.15570861 29.77455508 -26.3203125 31.234375 C-55.88193916 51.14482968 -86.51850566 69.34437578 -117.75 86.5 C-118.64291748 86.99266357 -119.53583496 87.48532715 -120.45581055 87.99291992 C-121.73838745 88.69251831 -121.73838745 88.69251831 -123.046875 89.40625 C-124.15820801 90.01436523 -124.15820801 90.01436523 -125.29199219 90.63476562 C-129.12532499 92.56732937 -133.07707152 94.25647623 -137 96 C-137 89.4 -137 82.8 -137 76 C-118.78571429 66.35714286 -118.78571429 66.35714286 -110.625 62.3125 C-81.38374551 47.79278345 -53.05072976 32.03289552 -25.21679688 14.97119141 C-22.25663465 13.15726079 -19.2932904 11.34870566 -16.328125 9.54296875 C-0.66674828 0 -0.66674828 0 0 0 Z " fill="#069678" transform="translate(214,260)"/>
<path d="M0 0 C0.55078125 2.65625 0.55078125 2.65625 0 6 C-2.63674545 8.35019503 -5.69420855 9.87163712 -8.8125 11.5 C-9.62654297 11.94730469 -10.44058594 12.39460938 -11.27929688 12.85546875 C-12.97470666 13.7836225 -14.67626229 14.70061762 -16.38305664 15.60766602 C-18.93076394 16.96316324 -21.4578306 18.35162765 -23.984375 19.74609375 C-55.02545821 36.6825492 -86.91845833 51.76585367 -119.34326172 65.84570312 C-121.76363803 66.8973057 -124.18103515 67.95542994 -126.59765625 69.015625 C-127.87741137 69.57335927 -129.15734079 70.13069388 -130.4375 70.6875 C-131.48808594 71.14511719 -132.53867188 71.60273438 -133.62109375 72.07421875 C-136 73 -136 73 -138 73 C-138 64.09 -138 55.18 -138 46 C-132.8334375 44.7315625 -132.8334375 44.7315625 -127.5625 43.4375 C-109.45322895 38.9288234 -91.52882817 33.84333118 -73.6875 28.375 C-72.50196533 28.01494873 -71.31643066 27.65489746 -70.0949707 27.28393555 C-63.49813936 25.23712483 -57.14103625 22.90654827 -50.79418945 20.18310547 C-47.46337616 18.7727847 -44.08949924 17.5197513 -40.69482422 16.2734375 C-30.46223354 12.51310859 -20.57636922 8.18622106 -10.73144531 3.50537109 C-9.76561523 3.04984863 -8.79978516 2.59432617 -7.8046875 2.125 C-6.94858887 1.71507812 -6.09249023 1.30515625 -5.21044922 0.8828125 C-3 0 -3 0 0 0 Z " fill="#089779" transform="translate(214,244)"/>
<path d="M0 0 C0 5.61 0 11.22 0 17 C-3.0628125 17.0928125 -3.0628125 17.0928125 -6.1875 17.1875 C-11.48306528 17.61040219 -11.48306528 17.61040219 -16.125 20.0625 C-20.35791243 26.6940628 -21.45114957 32.61768457 -21.51171875 40.3125 C-21.52966995 41.16682617 -21.54762115 42.02115234 -21.56611633 42.90136719 C-21.61982618 45.60086286 -21.65398739 48.30018582 -21.6875 51 C-21.7207079 52.84247176 -21.75520073 54.68492083 -21.79101562 56.52734375 C-21.87792332 61.01824859 -21.93832551 65.50839601 -22 70 C-27.94 70 -33.88 70 -40 70 C-40 47.23 -40 24.46 -40 1 C-34.72 1 -29.44 1 -24 1 C-23.67 4.96 -23.34 8.92 -23 13 C-22.525625 11.96875 -22.05125 10.9375 -21.5625 9.875 C-16.57192592 1.27720396 -9.43161822 -0.79703816 0 0 Z " fill="#21211F" transform="translate(923,287)"/>
<path d="M0 0 C0 5.94 0 11.88 0 18 C-3.22265625 17.86979167 -6.4453125 17.73958333 -9.66796875 17.609375 C-13.80054109 18.09385007 -15.20537706 18.93025874 -18 22 C-20.67238334 27.93340452 -21.46085361 32.85050294 -21.51171875 39.3125 C-21.52966995 40.16682617 -21.54762115 41.02115234 -21.56611633 41.90136719 C-21.61982618 44.60086286 -21.65398739 47.30018582 -21.6875 50 C-21.7207079 51.84247176 -21.75520073 53.68492083 -21.79101562 55.52734375 C-21.87792332 60.01824859 -21.93832551 64.50839601 -22 69 C-27.94 69 -33.88 69 -40 69 C-40 46.56 -40 24.12 -40 1 C-34.72 1 -29.44 1 -24 1 C-23.67 4.63 -23.34 8.26 -23 12 C-22.154375 10.7625 -21.30875 9.525 -20.4375 8.25 C-14.53307042 0.48753314 -9.57543729 -0.5246815 0 0 Z " fill="#1F1F1D" transform="translate(364,287)"/>
<path d="M0 0 C4.95 0 9.9 0 15 0 C17.09241087 5.28609061 18.87073283 10.63784575 20.5625 16.0625 C20.77221436 16.73474609 20.98192871 17.40699219 21.19799805 18.09960938 C22.52404809 22.38401269 23.78199354 26.68365452 25 31 C27.93326043 24.07351404 30.25458268 17.12365883 32.25 9.875 C32.518125 8.91851562 32.78625 7.96203125 33.0625 6.9765625 C33.71326107 4.6524158 34.35734755 2.32640187 35 0 C40.28 0 45.56 0 51 0 C51 15.18 51 30.36 51 46 C48.03 46 45.06 46 42 46 C41.67 35.11 41.34 24.22 41 13 C39.72125 16.96 38.4425 20.92 37.125 25 C36.72555176 26.23234375 36.32610352 27.4646875 35.91455078 28.734375 C34.07584875 34.455193 32.36286189 40.14686681 31 46 C27.7 46 24.4 46 21 46 C17.7 35.44 14.4 24.88 11 14 C10.67 24.56 10.34 35.12 10 46 C6.7 46 3.4 46 0 46 C0 30.82 0 15.64 0 0 Z " fill="#292927" transform="translate(873,403)"/>
<path d="M0 0 C0 2.31 0 4.62 0 7 C-9.89657112 11.75232255 -19.86780987 16.08179232 -30.125 20 C-30.79365082 20.25701691 -31.46230164 20.51403381 -32.1512146 20.77883911 C-54.94404474 29.53183517 -77.92986855 36.32130502 -101.625 42.125 C-102.31597778 42.29530731 -103.00695557 42.46561462 -103.71887207 42.64108276 C-111.39126983 44.52660447 -119.07193209 46.27333953 -126.8359375 47.7421875 C-127.51065094 47.87037872 -128.18536438 47.99856995 -128.88052368 48.13064575 C-131.6393896 48.63730758 -134.18743026 49 -137 49 C-137 43.72 -137 38.44 -137 33 C-135.29199219 32.84144531 -133.58398438 32.68289063 -131.82421875 32.51953125 C-95.82566067 29.0189907 -60.87718132 21.23120921 -26.6875 9.5 C-25.6137915 9.13221436 -24.54008301 8.76442871 -23.43383789 8.38549805 C-16.96927644 6.13511619 -10.65432098 3.66009996 -4.37426758 0.93554688 C-2 0 -2 0 0 0 Z " fill="#089779" transform="translate(214,231)"/>
<path d="M0 0 C5.61 0 11.22 0 17 0 C17 22.11 17 44.22 17 67 C11.72 67 6.44 67 1 67 C1 64.03 1 61.06 1 58 C-0.97746603 57.26919734 -2.98072489 56.60578253 -5 56 C-5.99 56.495 -5.99 56.495 -7 57 C-5.77525702 52.28945007 -4.18405173 48.36810347 -2 44 C-0.75544152 39.38047607 -0.7795897 34.7322825 -0.68359375 29.98046875 C-0.66281265 29.12189774 -0.64203156 28.26332672 -0.62062073 27.3787384 C-0.55547477 24.64840346 -0.49640346 21.91797605 -0.4375 19.1875 C-0.3942815 17.33137082 -0.35066616 15.47525084 -0.30664062 13.61914062 C-0.19908592 9.07952029 -0.09975306 4.53982525 0 0 Z " fill="#1D1D1B" transform="translate(489,289)"/>
<path d="M0 0 C4.92545573 3.28363715 7.98691459 7.27653808 9.8125 12.875 C10.56447399 20.41427171 10.41217734 28.05980061 6.8125 34.875 C3.7899593 38.42648532 0.89827048 41.55786531 -3.859375 42.28125 C-13.20085361 42.56576204 -13.20085361 42.56576204 -17.25 39.375 C-23.24213311 33.03210788 -23.66356009 26.09745674 -23.61181641 17.74755859 C-23.36323479 10.65547496 -21.83781416 6.39603055 -16.625 1.4375 C-11.33139236 -1.95583823 -5.78770487 -2.04271937 0 0 Z " fill="#FBFBFB" transform="translate(721.1875,302.125)"/>
<path d="M0 0 C0.83308383 6.9324476 0.83308383 6.9324476 -1.2421875 9.59179688 C-3.09300274 11.11210939 -4.99566021 12.43847863 -7 13.75 C-8.48493313 14.78826472 -9.96929316 15.82734948 -11.453125 16.8671875 C-12.21431641 17.38764648 -12.97550781 17.90810547 -13.75976562 18.44433594 C-16.51152704 20.35521472 -19.17075613 22.37022661 -21.83032227 24.40649414 C-43.35619133 40.87325014 -66.12685409 55.60723256 -89.1875 69.8125 C-90.86320068 70.84479736 -90.86320068 70.84479736 -92.57275391 71.89794922 C-104.59851613 79.26365885 -104.59851613 79.26365885 -109.109375 79.1953125 C-110.24052734 79.18564453 -110.24052734 79.18564453 -111.39453125 79.17578125 C-112.56048828 79.15064453 -112.56048828 79.15064453 -113.75 79.125 C-114.54277344 79.11597656 -115.33554688 79.10695313 -116.15234375 79.09765625 C-118.10169281 79.07417012 -120.05088575 79.03830137 -122 79 C-119.20837093 75.68754461 -115.49336103 73.90881899 -111.75 71.875 C-110.28295948 71.06281187 -108.81683147 70.24897359 -107.3515625 69.43359375 C-106.61454102 69.02351074 -105.87751953 68.61342773 -105.11816406 68.19091797 C-99.32845782 64.93570969 -93.66918974 61.45920605 -88 58 C-87.02643555 57.40735352 -86.05287109 56.81470703 -85.04980469 56.20410156 C-72.93286837 48.82017257 -60.85094522 41.41585747 -49.11962891 33.42871094 C-46.53372924 31.68571568 -43.92940173 29.9718497 -41.32421875 28.2578125 C-28.59874415 19.86977014 -15.93386618 11.42619839 -4.19921875 1.671875 C-2 0 -2 0 0 0 Z " fill="#0B9779" transform="translate(214,277)"/>
<path d="M0 0 C20.73065903 0 20.73065903 0 27 4 C30.67013871 8.84490717 30.68524918 13.1425276 30 19 C28.6990404 22.7659357 27.74929039 24.44283535 24.5625 26.8125 C19.00697181 29.38701306 15.50808189 29 9 29 C9 34.94 9 40.88 9 47 C6.03 47 3.06 47 0 47 C0 31.49 0 15.98 0 0 Z " fill="#21211F" transform="translate(834,403)"/>
<path d="M0 0 C1.96713413 2.95070119 2.65358161 4.53581611 3 8 C2.34 8.99 1.68 9.98 1 11 C1 8.69 1 6.38 1 4 C0.52393311 4.35602295 0.04786621 4.7120459 -0.44262695 5.07885742 C-12.43044262 14.02500987 -24.59226462 22.64729884 -37 31 C-38.25133994 31.84760037 -39.5026444 32.69525311 -40.75390625 33.54296875 C-55.83156475 43.71482984 -71.19418882 53.49811772 -86.86230469 62.73535156 C-89.45762689 64.27072947 -92.04494458 65.81927979 -94.6328125 67.3671875 C-96.63004859 68.55755973 -98.62744423 69.74766431 -100.625 70.9375 C-102.0490918 71.79033569 -102.0490918 71.79033569 -103.50195312 72.66040039 C-104.40107422 73.1939917 -105.30019531 73.72758301 -106.2265625 74.27734375 C-107.02658691 74.75421631 -107.82661133 75.23108887 -108.65087891 75.72241211 C-111.04455178 77.02422983 -113.45230978 78.03974284 -116 79 C-116.66 77.68 -117.32 76.36 -118 75 C-114.26618577 70.53406534 -109.377144 68.33789346 -104.3125 65.6875 C-71.39898291 48.0859711 -40.01698585 27.53345799 -9.34765625 6.3046875 C-6.25525561 4.16688585 -3.13386924 2.07648741 0 0 Z " fill="#E9F6F5" transform="translate(213,273)"/>
<path d="M0 0 C0.99 0.495 0.99 0.495 2 1 C1.50286112 5.19325834 0.53102068 6.92406028 -2.6875 9.625 C-3.50089844 10.31078125 -4.31429687 10.9965625 -5.15234375 11.703125 C-10.72245517 16.19588977 -16.33716971 20.62467863 -22 25 C-23.00675781 25.77988281 -24.01351562 26.55976563 -25.05078125 27.36328125 C-27.69663209 29.40515057 -30.34853003 31.43867175 -33.00341797 33.46875 C-35.37269109 35.2858301 -37.73478743 37.11210033 -40.09765625 38.9375 C-41.93994101 40.35437883 -43.78238941 41.77104492 -45.625 43.1875 C-46.48359619 43.85289795 -47.34219238 44.5182959 -48.22680664 45.20385742 C-52.69775466 48.63108722 -57.23727549 51.94885812 -61.8984375 55.11328125 C-62.77935059 55.71567627 -63.66026367 56.31807129 -64.56787109 56.9387207 C-67 58 -67 58 -69.31884766 57.18041992 C-69.87362793 56.79088135 -70.4284082 56.40134277 -71 56 C-71 55.34 -71 54.68 -71 54 C-71.66 53.34 -72.32 52.68 -73 52 C-72.09459473 51.4016333 -71.18918945 50.8032666 -70.25634766 50.18676758 C-49.37245194 36.37428998 -28.73885771 22.42435329 -9 7 C-7.22922305 5.62492739 -5.45839602 4.24991927 -3.6875 2.875 C-2.45804313 1.91703899 -1.22874903 0.95886875 0 0 Z " fill="#EFF8F7" transform="translate(212,285)"/>
<path d="M0 0 C1.18239258 0.01353516 1.18239258 0.01353516 2.38867188 0.02734375 C4.32174666 0.05077496 6.2546638 0.08664162 8.1875 0.125 C8.35653988 6.39247845 8.2047986 10.15060205 4.1875 15.125 C0.53818627 18.59629842 -2.40713354 19.43457744 -7.3125 19.6875 C-10.97417112 19.5426317 -13.51961516 19.18750336 -16.5 17 C-18.8125 14.125 -18.8125 14.125 -19.5 11.1875 C-18.57135087 7.05079022 -16.8241753 5.06974918 -13.8125 2.125 C-9.30672501 -0.34323703 -4.99162292 -0.10878642 0 0 Z " fill="#FAFAF9" transform="translate(404.8125,325.875)"/>
<path d="M0 0 C0 1.32 0 2.64 0 4 C-4.04053222 5.56544419 -8.08263877 7.1267855 -12.125 8.6875 C-13.24777344 9.12255859 -14.37054688 9.55761719 -15.52734375 10.00585938 C-28.55028716 15.02899469 -41.48494297 19.59993873 -55 23.125 C-56.25039062 23.45886719 -57.50078125 23.79273438 -58.7890625 24.13671875 C-81.92616761 30.24433966 -81.92616761 30.24433966 -90 30 C-89.67 29.34 -89.34 28.68 -89 28 C-91.31 28 -93.62 28 -96 28 C-96 27.01 -96 26.02 -96 25 C-95.29020996 24.90090332 -94.58041992 24.80180664 -93.84912109 24.69970703 C-62.96667782 20.26271526 -32.78320487 12.97400207 -4.01074219 0.75927734 C-2 0 -2 0 0 0 Z " fill="#EBF6F5" transform="translate(212,228)"/>
<path d="M0 0 C2.97 0 5.94 0 9 0 C9 15.18 9 30.36 9 46 C6.03 46 3.06 46 0 46 C0 30.82 0 15.64 0 0 Z " fill="#1E1E1D" transform="translate(813,403)"/>
<path d="M0 0 C3.9199331 2.51162761 5.8730808 6.12122591 7.25 10.5 C7.25 11.82 7.25 13.14 7.25 14.5 C-2.65 14.5 -12.55 14.5 -22.75 14.5 C-21.53604651 6.00232558 -21.53604651 6.00232558 -17.75 1.5 C-12.14627304 -2.32072293 -6.08925901 -2.93379717 0 0 Z " fill="#F3F3F2" transform="translate(846.75,301.5)"/>
<path d="M0 0 C0.33 0.66 0.66 1.32 1 2 C3.02463255 2.65213292 3.02463255 2.65213292 5 3 C5.33 2.34 5.66 1.68 6 1 C7.84757712 4.69515424 7.34143535 8.95864702 7 13 C5.7779711 16.53745209 4.73024751 18.35826734 1.9375 20.8125 C-2.2843422 22.51920217 -6.48204183 22.7455907 -11 23 C-11.38218767 21.34385343 -11.71395102 19.67542976 -12 18 C-11.67 17.67 -11.34 17.34 -11 17 C-11.99 16.67 -12.98 16.34 -14 16 C-14 11.38 -14 6.76 -14 2 C-12.55625 2.144375 -11.1125 2.28875 -9.625 2.4375 C-8.40683594 2.55931641 -8.40683594 2.55931641 -7.1640625 2.68359375 C-5 3 -5 3 -3 4 C-3 3.34 -3 2.68 -3 2 C-2.01 2 -1.02 2 0 2 C0 1.34 0 0.68 0 0 Z " fill="#242422" transform="translate(857,409)"/>
<path d="M0 0 C0.66 0 1.32 0 2 0 C3.01866229 1.65532623 4.01810813 3.32260138 5 5 C5.66 5.33 6.32 5.66 7 6 C7 10.95 7 15.9 7 21 C6.67 21 6.34 21 6 21 C5.67 17.04 5.34 13.08 5 9 C3.22882813 10.22589844 3.22882813 10.22589844 1.421875 11.4765625 C-0.13484956 12.52688269 -1.69217262 13.5763162 -3.25 14.625 C-4.02730469 15.16640625 -4.80460938 15.7078125 -5.60546875 16.265625 C-6.73662109 17.01972656 -6.73662109 17.01972656 -7.890625 17.7890625 C-8.58188477 18.26037598 -9.27314453 18.73168945 -9.98535156 19.21728516 C-12 20 -12 20 -14.21777344 19.32958984 C-16 18 -16 18 -16.625 14.9375 C-16.74875 13.968125 -16.8725 12.99875 -17 12 C-17.66 11.67 -18.32 11.34 -19 11 C-18.18994507 10.55346069 -18.18994507 10.55346069 -17.36352539 10.09790039 C-14.92887423 8.75452698 -12.4956726 7.40854945 -10.0625 6.0625 C-9.21236328 5.59392578 -8.36222656 5.12535156 -7.48632812 4.64257812 C-6.67744141 4.19462891 -5.86855469 3.74667969 -5.03515625 3.28515625 C-3.91185913 2.66459351 -3.91185913 2.66459351 -2.76586914 2.03149414 C-1.03748855 1.1221285 -1.03748855 1.1221285 0 0 Z " fill="#EFF9F7" transform="translate(208,252)"/>
<path d="M0 0 C0.66 0.33 1.32 0.66 2 1 C2 2.65 2 4.3 2 6 C-1.80648736 7.71371692 -5.61510294 9.42258281 -9.42578125 11.12695312 C-10.72227868 11.70764887 -12.01818127 12.28967458 -13.31347656 12.87304688 C-15.17358729 13.71052399 -17.03577294 14.54322138 -18.8984375 15.375 C-20.57945557 16.12910156 -20.57945557 16.12910156 -22.29443359 16.8984375 C-25 18 -25 18 -27 18 C-27.33 16.02 -27.66 14.04 -28 12 C-27.29391602 11.70754395 -26.58783203 11.41508789 -25.86035156 11.11376953 C-22.65627864 9.78567551 -19.45313167 8.45536247 -16.25 7.125 C-14.58324219 6.43470703 -14.58324219 6.43470703 -12.8828125 5.73046875 C-11.81289062 5.28574219 -10.74296875 4.84101563 -9.640625 4.3828125 C-8.16384277 3.77010498 -8.16384277 3.77010498 -6.65722656 3.14501953 C-4.03553353 2.06315466 -4.03553353 2.06315466 -1.77246094 0.78857422 C-0.89509277 0.39822998 -0.89509277 0.39822998 0 0 Z " fill="#F0F9F7" transform="translate(212,238)"/>
<path d="M0 0 C1.44375 0.12375 2.8875 0.2475 4.375 0.375 C5.59316406 0.47941406 5.59316406 0.47941406 6.8359375 0.5859375 C9 1 9 1 11 3 C11.5410628 8.95169082 11.5410628 8.95169082 10 11.9375 C6.73357754 13.67278693 3.65648548 13.17982715 0 13 C0 8.71 0 4.42 0 0 Z " fill="#FBFBFA" transform="translate(843,411)"/>
<path d="M0 0 C0.33 0.99 0.66 1.98 1 3 C-2.85623679 7.82029598 -2.85623679 7.82029598 -6.11328125 8.33203125 C-8.07856214 8.3145776 -10.04166127 8.16596091 -12 8 C-8.2064129 4.78119883 -4.34170523 2.3836813 0 0 Z " fill="#129B7C" transform="translate(199,269)"/>
<path d="M0 0 C0 2.31 0 4.62 0 7 C-1.98 7.33 -3.96 7.66 -6 8 C-7 5 -7 5 -6.25 2.875 C-4.57005221 0.35507831 -2.97305573 0 0 0 Z " fill="#0E997C" transform="translate(214,231)"/>
<path d="M0 0 C0.66 0.33 1.32 0.66 2 1 C0.4335515 3.55578439 -0.35433245 4.82586976 -3.30932617 5.62280273 C-5.87316379 5.98221922 -8.27674692 6.11434357 -10.86328125 6.09765625 C-12.19262695 6.09282227 -12.19262695 6.09282227 -13.54882812 6.08789062 C-14.46083984 6.07951172 -15.37285156 6.07113281 -16.3125 6.0625 C-17.24384766 6.05798828 -18.17519531 6.05347656 -19.13476562 6.04882812 C-21.42324373 6.03709234 -23.71158808 6.02067363 -26 6 C-24 4 -24 4 -20.33203125 3.9453125 C-18.07255514 4.0212277 -15.81760494 4.12470778 -13.56054688 4.25390625 C-7.78774929 4.42592651 -4.86610923 3.05445738 0 0 Z " fill="#B3E2DA" transform="translate(116,351)"/>
<path d="M0 0 C0 0.99 0 1.98 0 3 C-0.33 3.33 -0.66 3.66 -1 4 C1.97 4.33 4.94 4.66 8 5 C8 5.33 8 5.66 8 6 C2.39 6 -3.22 6 -9 6 C-6.07175348 3.07175348 -3.7020007 1.72760033 0 0 Z " fill="#12977A" transform="translate(101,350)"/>
<path d="M0 0 C0.66 0 1.32 0 2 0 C2.34886026 5.32011893 2.34886026 5.32011893 2 8 C0.125 10 0.125 10 -2 11 C-2.66 11 -3.32 11 -4 11 C-4 9.35 -4 7.7 -4 6 C-2.35 5.67 -0.7 5.34 1 5 C1 4.01 1 3.02 1 2 C0.34 1.67 -0.32 1.34 -1 1 C-0.67 0.67 -0.34 0.34 0 0 Z " fill="#26A087" transform="translate(212,277)"/>
<path d="M0 0 C-4.95 2.97 -4.95 2.97 -10 6 C-10.33 5.34 -10.66 4.68 -11 4 C-10.67 3.01 -10.34 2.02 -10 1 C-3.84210526 -1.28070175 -3.84210526 -1.28070175 0 0 Z " fill="#1A9A7E" transform="translate(121,349)"/>
<path d="M0 0 C1.96713413 2.95070119 2.65358161 4.53581611 3 8 C2.01 9.485 2.01 9.485 1 11 C1 8.69 1 6.38 1 4 C0.01 4.66 -0.98 5.32 -2 6 C-2.99 6 -3.98 6 -5 6 C-5 5.01 -5 4.02 -5 3 C-2.5 1.3125 -2.5 1.3125 0 0 Z " fill="#EAF8F7" transform="translate(213,273)"/>
<path d="M0 0 C0.66 0.66 1.32 1.32 2 2 C-0.97 3.32 -3.94 4.64 -7 6 C-7 5.34 -7 4.68 -7 4 C-7.66 3.67 -8.32 3.34 -9 3 C-5.78372163 0.85581442 -3.80909895 0.32417863 0 0 Z " fill="#139B7E" transform="translate(151,281)"/>
<path d="M0 0 C2.31 0.66 4.62 1.32 7 2 C5.1875 4 5.1875 4 3 6 C2.01 6 1.02 6 0 6 C-1.125 2.25 -1.125 2.25 0 0 Z " fill="#089676" transform="translate(202,249)"/>
<path d="M0 0 C0.99 0.33 1.98 0.66 3 1 C2.34 2.65 1.68 4.3 1 6 C-0.65 5.67 -2.3 5.34 -4 5 C-2.25 1.125 -2.25 1.125 0 0 Z " fill="#F5F9FA" transform="translate(138,322)"/>
<path d="M0 0 C1.90318884 2.85478326 2.4619099 4.41941308 3.125 7.6875 C3.29257812 8.49574219 3.46015625 9.30398438 3.6328125 10.13671875 C3.75398437 10.75160156 3.87515625 11.36648438 4 12 C2 11.0625 2 11.0625 0 9 C-0.36475845 5.97465051 -0.22893297 3.03336186 0 0 Z " fill="#E7E7E5" transform="translate(883,414)"/>
<path d="M0 0 C0.66 0.33 1.32 0.66 2 1 C1.525625 1.37125 1.05125 1.7425 0.5625 2.125 C-1.52205802 4.62646962 -1.64621491 6.81593418 -2 10 C-2.99 10 -3.98 10 -5 10 C-4.49701212 5.59885603 -2.91227269 3.28804981 0 0 Z " fill="#2C2C2B" transform="translate(376,321)"/>
<path d="M0 0 C0 3 0 3 -2 6 C-5.625 6.6875 -5.625 6.6875 -9 7 C-6.24479785 4.04070881 -3.53372712 1.96318174 0 0 Z " fill="#189C7E" transform="translate(167,309)"/>
<path d="M0 0 C0.66 0.33 1.32 0.66 2 1 C2 1.66 2 2.32 2 3 C1.443125 3.0825 0.88625 3.165 0.3125 3.25 C-2.69714206 4.22610013 -4.62154752 5.95188814 -7 8 C-7.66 7.67 -8.32 7.34 -9 7 C-7.87720538 6.01830524 -6.75168527 5.03972702 -5.625 4.0625 C-4.68527344 3.24458984 -4.68527344 3.24458984 -3.7265625 2.41015625 C-2 1 -2 1 0 0 Z " fill="#2C2C2A" transform="translate(632,289)"/>
<path d="M0 0 C0.66 0.33 1.32 0.66 2 1 C-0.97 3.475 -0.97 3.475 -4 6 C-4.99 5.34 -5.98 4.68 -7 4 C-1.7265625 0.77734375 -1.7265625 0.77734375 0 0 Z " fill="#323230" transform="translate(354,287)"/>
<path d="M0 0 C1.65 0 3.3 0 5 0 C4.67 1.65 4.34 3.3 4 5 C2.68 4.34 1.36 3.68 0 3 C0 2.01 0 1.02 0 0 Z " fill="#029574" transform="translate(127,335)"/>
<path d="M0 0 C0.66 0.33 1.32 0.66 2 1 C2 2.65 2 4.3 2 6 C0.68 6.33 -0.64 6.66 -2 7 C-2 5 -2 3 -2 1 C-1.34 0.67 -0.68 0.34 0 0 Z " fill="#E7F5F4" transform="translate(212,238)"/>
<path d="M0 0 C1.32 0.33 2.64 0.66 4 1 C1.36 2.65 -1.28 4.3 -4 6 C-3 2 -3 2 0 0 Z " fill="#DFF3F1" transform="translate(156,332)"/>
<path d="M0 0 C0.33 0.66 0.66 1.32 1 2 C1.66 2.33 2.32 2.66 3 3 C3.625 5.0625 3.625 5.0625 4 7 C0.535 5.02 0.535 5.02 -3 3 C-2.01 2.01 -1.02 1.02 0 0 Z " fill="#149A81" transform="translate(186,296)"/>
<path d="M0 0 C0 0.66 0 1.32 0 2 C0.66 2.33 1.32 2.66 2 3 C0.35 3.33 -1.3 3.66 -3 4 C-3 3.34 -3 2.68 -3 2 C-4.65 2 -6.3 2 -8 2 C-4.91190305 0.23537317 -3.76687864 0 0 0 Z " fill="#EDF7F8" transform="translate(104,275)"/>
<path d="M0 0 C0.33 0.66 0.66 1.32 1 2 C-0.50663783 5.01327566 -3.03166411 5.61056618 -6 7 C-6.66 6.34 -7.32 5.68 -8 5 C-4.04 2.525 -4.04 2.525 0 0 Z " fill="#1E9E82" transform="translate(208,263)"/>
<path d="M0 0 C0 1.32 0 2.64 0 4 C-1.32 4.33 -2.64 4.66 -4 5 C-4 4.34 -4 3.68 -4 3 C-4.99 2.67 -5.98 2.34 -7 2 C-2.25 0 -2.25 0 0 0 Z " fill="#E0F4F1" transform="translate(212,228)"/>
<path d="M0 0 C1.32 0.99 2.64 1.98 4 3 C3.67 3.99 3.34 4.98 3 6 C2.01 5.67 1.02 5.34 0 5 C0 4.34 0 3.68 0 3 C-0.66 2.67 -1.32 2.34 -2 2 C-1.34 1.34 -0.68 0.68 0 0 Z " fill="#DFF5F2" transform="translate(191,301)"/>
<path d="M0 0 C1.32 0.66 2.64 1.32 4 2 C2.35 3.32 0.7 4.64 -1 6 C-1.33 4.68 -1.66 3.36 -2 2 C-1.34 2 -0.68 2 0 2 C0 1.34 0 0.68 0 0 Z " fill="#ECF7F5" transform="translate(160,288)"/>
<path d="M0 0 C0 0.66 0 1.32 0 2 C-1.98 2.33 -3.96 2.66 -6 3 C-6.33 2.01 -6.66 1.02 -7 0 C-3.86650268 -1.04449911 -3.01031744 -0.93423645 0 0 Z " fill="#1C9F81" transform="translate(164,250)"/>
<path d="M0 0 C0.99 0.33 1.98 0.66 3 1 C3 1.66 3 2.32 3 3 C3.66 3.66 4.32 4.32 5 5 C3.35 5.33 1.7 5.66 0 6 C-1 3 -1 3 0 0 Z " fill="#059375" transform="translate(208,233)"/>
</svg>
