<?xml version="1.0" encoding="UTF-8"?>
<svg version="1.1" xmlns="http://www.w3.org/2000/svg" width="855" height="239">
<path d="M0 0 C282.15 0 564.3 0 855 0 C855 78.87 855 157.74 855 239 C572.85 239 290.7 239 0 239 C0 160.13 0 81.26 0 0 Z " fill="#FEFEFE" transform="translate(0,0)"/>
<path d="M0 0 C45.21 0 90.42 0 137 0 C137 0.66 137 1.32 137 2 C138.65 2.33 140.3 2.66 142 3 C142 5.97 142 8.94 142 12 C141.34 12 140.68 12 140 12 C140 12.66 140 13.32 140 14 C140.99 14.66 141.98 15.32 143 16 C143.2578125 18.57421875 143.2578125 18.57421875 143.125 21.6875 C143.00294611 26.29780837 143.17647432 30.47060877 144 35 C143.48953125 35.20753906 142.9790625 35.41507813 142.453125 35.62890625 C136.69288192 38.06986032 131.38791704 41.0320141 126.01171875 44.22265625 C118.42429855 48.70031668 110.59967073 52.75846504 102.8125 56.875 C102.08345459 57.26147705 101.35440918 57.6479541 100.60327148 58.04614258 C87.66970561 64.85701426 74.53457739 71.27074607 61.3125 77.5 C60.60608368 77.83306152 59.89966736 78.16612305 59.17184448 78.50927734 C47.05665966 84.20824467 34.84280646 89.66697294 22.5625 95 C21.74915192 95.35505615 20.93580383 95.7101123 20.09780884 96.07592773 C17.79836644 97.07782576 15.49563657 98.07167136 13.19140625 99.0625 C12.50548401 99.36168335 11.81956177 99.6608667 11.112854 99.96911621 C8.23098666 101.19694727 6.16824312 102 3 102 C2.67 93.42 2.34 84.84 2 76 C1.34 76 0.68 76 0 76 C0 50.92 0 25.84 0 0 Z " fill="#EBFAF9" transform="translate(0,0)"/>
<path d="M0 0 C1.21913086 -0.0309375 1.21913086 -0.0309375 2.46289062 -0.0625 C11.51219598 -0.12009303 18.66564536 2.32368452 25.6640625 8.08203125 C34.39620218 16.89355402 36.125 25.08757645 36.125 36.89599609 C35.95091252 47.30365773 33.31980837 54.70686342 26.03515625 62.3046875 C16.04000848 71.05263757 5.03715747 71.14157108 -7.65771484 70.51074219 C-15.51907121 69.70048079 -21.27350418 65.54552673 -26.6875 60.0625 C-34.89984049 49.71152918 -35.50044125 37.98377174 -34.1875 25.25 C-32.46829283 16.6432191 -26.99244891 9.55586797 -19.80859375 4.61328125 C-13.0876219 0.74899925 -7.64783734 0.04739171 0 0 Z " fill="#1F1F1E" transform="translate(641.1875,72.75)"/>
<path d="M0 0 C45.21 0 90.42 0 137 0 C137 2.64 137 5.28 137 8 C106.44988694 21.51076429 74.13683536 29.97758274 41.125 34.8125 C40.40693176 34.91782043 39.68886353 35.02314087 38.94903564 35.13165283 C25.88639984 37.02559816 13.26394998 38 0 38 C0 25.46 0 12.92 0 0 Z " fill="#039476" transform="translate(5,4)"/>
<path d="M0 0 C5.94 0 11.88 0 18 0 C18.33 12.54 18.66 25.08 19 38 C21.31 36.02 23.62 34.04 26 32 C32.99892545 28.44122435 40.67794894 27.50484184 48.3359375 29.65625 C54.7255348 32.49607102 58.67497999 37.12912332 61.56445312 43.38964844 C63.56451347 48.84809603 63.37583928 54.18792892 63.29296875 59.9375 C63.28872391 61.05817871 63.28447906 62.17885742 63.28010559 63.33349609 C63.26340311 66.88924874 63.22576568 70.44442059 63.1875 74 C63.17244231 76.42056469 63.1587558 78.84113833 63.14648438 81.26171875 C63.11352706 87.17470065 63.06180241 93.08725208 63 99 C57.06 99 51.12 99 45 99 C44.98541748 97.60765137 44.97083496 96.21530273 44.95581055 94.78076172 C44.89773456 89.6032575 44.82050158 84.42618393 44.73754883 79.24902344 C44.70434334 77.01048789 44.67629784 74.77186951 44.65356445 72.53320312 C44.61993855 69.31083961 44.56761728 66.08923226 44.51171875 62.8671875 C44.50532883 61.87008759 44.4989389 60.87298767 44.49235535 59.84567261 C44.37987021 54.50092612 44.02021641 50.6081556 41 46 C37.6466301 43.36520936 34.12471594 43.57330525 30 44 C25.10982085 46.30126078 23.07425857 48.99496895 20.82943726 53.69192505 C19.37862957 57.72908741 19.41650101 61.68219129 19.42578125 65.93359375 C19.40453438 67.3114077 19.40453438 67.3114077 19.38285828 68.71705627 C19.34122385 71.62399305 19.32575724 74.53030799 19.3125 77.4375 C19.28345703 80.36939937 19.2490033 83.30114206 19.21000671 86.23292542 C19.18748346 88.05132424 19.17168594 89.8698209 19.16316223 91.68833923 C19.10962938 97.89037062 19.10962938 97.89037062 18 99 C12.06 99 6.12 99 0 99 C0 66.33 0 33.66 0 0 Z " fill="#222220" transform="translate(532,43)"/>
<path d="M0 0 C5.27595564 4.65234362 8.60326168 9.31233762 9.21221924 16.50747681 C9.32720271 19.58652626 9.38124882 22.6611631 9.4140625 25.7421875 C9.43342865 26.86569611 9.4527948 27.98920471 9.4727478 29.14675903 C9.53235875 32.72276298 9.57885548 36.29879943 9.625 39.875 C9.66319674 42.30470126 9.70224946 44.73438923 9.7421875 47.1640625 C9.83804531 53.10926657 9.92214497 59.05453402 10 65 C4.72 65 -0.56 65 -6 65 C-6.495 61.04 -6.495 61.04 -7 57 C-7.51949219 57.48210937 -8.03898437 57.96421875 -8.57421875 58.4609375 C-9.27160156 59.09257812 -9.96898437 59.72421875 -10.6875 60.375 C-11.37199219 61.00148438 -12.05648437 61.62796875 -12.76171875 62.2734375 C-19.52124577 67.48759272 -27.90004581 66.64929493 -36 66 C-42.70735304 64.25885821 -46.55527829 59.99651315 -50.1015625 54.19921875 C-52.34853982 48.69900904 -52.13919085 41.72620155 -49.8671875 36.2890625 C-45.35009271 29.17049951 -39.72050659 25.61122036 -31.6328125 23.52734375 C-23.50320225 22.34723904 -15.19343677 22.77750729 -7 23 C-7.25662245 21.55989519 -7.53090821 20.1229313 -7.8125 18.6875 C-7.96332031 17.88699219 -8.11414063 17.08648437 -8.26953125 16.26171875 C-9.09378833 13.70960726 -9.90725641 12.64683212 -12 11 C-20.22570317 8.25809894 -29.27703504 9.4143377 -37 13 C-38.98 13.66 -40.96 14.32 -43 15 C-43.33 10.38 -43.66 5.76 -44 1 C-31.88309681 -5.05845159 -11.98448673 -8.17227857 0 0 Z " fill="#20201E" transform="translate(348,77)"/>
<path d="M0 0 C8.17600565 6.54080452 11.11212716 13.04776294 12.8125 23.25 C12.8125 27.54 12.8125 31.83 12.8125 36.25 C-2.3675 36.25 -17.5475 36.25 -33.1875 36.25 C-30.69650878 44.79127268 -30.69650878 44.79127268 -25.1875 50.25 C-17.3109009 54.03503239 -8.58285362 52.83810999 -0.5390625 50.1015625 C0.23695313 49.82054687 1.01296875 49.53953125 1.8125 49.25 C3.7925 48.59 5.7725 47.93 7.8125 47.25 C7.8125 51.87 7.8125 56.49 7.8125 61.25 C-3.51505431 66.57051793 -16.29325685 68.41604605 -28.625 65.125 C-37.16074351 62.01196413 -42.53293204 57.7470097 -46.99609375 49.8125 C-51.62152712 39.86402692 -51.71769712 27.63146224 -49.5 16.93359375 C-48.5878463 14.50498453 -47.56701036 12.44350715 -46.1875 10.25 C-45.75179687 9.528125 -45.31609375 8.80625 -44.8671875 8.0625 C-40.75345326 1.9480972 -35.7315328 -1.29069238 -29 -4.0625 C-18.47732648 -5.96003129 -9.36149909 -5.13964656 0 0 Z " fill="#1F1F1D" transform="translate(785.1875,76.75)"/>
<path d="M0 0 C6.27 0 12.54 0 19 0 C19.01458252 1.39234863 19.02916504 2.78469727 19.04418945 4.21923828 C19.10226544 9.3967425 19.17949842 14.57381607 19.26245117 19.75097656 C19.29565666 21.98951211 19.32370216 24.22813049 19.34643555 26.46679688 C19.38006145 29.68916039 19.43238272 32.91076774 19.48828125 36.1328125 C19.49467117 37.12991241 19.5010611 38.12701233 19.50764465 39.15432739 C19.61973513 44.48032151 19.94446779 48.42864285 23 53 C26.74120254 54.87060127 30.92574707 54.53196851 35 54 C40.21527252 51.06048276 41.68177625 47.91817909 43.38882446 42.49295044 C44.37926111 38.45301538 44.4797577 34.51507455 44.51171875 30.37109375 C44.52966995 29.49598648 44.54762115 28.62087921 44.56611633 27.71925354 C44.61975302 24.95871623 44.65396354 22.19834705 44.6875 19.4375 C44.72071438 17.55140912 44.75520778 15.6653403 44.79101562 13.77929688 C44.87783058 9.18617999 44.93829548 4.5937953 45 0 C50.94 0 56.88 0 63 0 C63 22.44 63 44.88 63 68 C57.06 68 51.12 68 45 68 C45 65.69 45 63.38 45 61 C44.24074219 61.49371094 43.48148437 61.98742187 42.69921875 62.49609375 C41.70535156 63.13675781 40.71148437 63.77742188 39.6875 64.4375 C38.70136719 65.07558594 37.71523438 65.71367187 36.69921875 66.37109375 C30.18080874 70.30477968 22.3684854 69.52368615 15 69 C9.73028337 67.51974252 5.80834319 63.62406026 3 59 C-0.16053734 52.14785165 -0.4029886 45.62469264 -0.29296875 38.18359375 C-0.28872391 37.08652603 -0.28447906 35.98945831 -0.28010559 34.85914612 C-0.26342927 31.38500522 -0.22579717 27.91146301 -0.1875 24.4375 C-0.17243891 22.06966989 -0.15875301 19.7018306 -0.14648438 17.33398438 C-0.11356187 11.55576196 -0.06185597 5.77798218 0 0 Z " fill="#272725" transform="translate(372,74)"/>
<path d="M0 0 C0 21.78 0 43.56 0 66 C-28.38 66 -56.76 66 -86 66 C-80.37748625 60.37748625 -80.37748625 60.37748625 -77.1796875 58.16796875 C-76.48584961 57.68424805 -75.79201172 57.20052734 -75.07714844 56.70214844 C-74.35043945 56.20231445 -73.62373047 55.70248047 -72.875 55.1875 C-71.33560368 54.11375968 -69.79654033 53.03954184 -68.2578125 51.96484375 C-67.51821289 51.45034668 -66.77861328 50.93584961 -66.01660156 50.40576172 C-57.99734525 44.81558281 -50.21766487 38.91574361 -42.4375 33 C-41.56254883 32.33516602 -40.68759766 31.67033203 -39.78613281 30.98535156 C-34.57216291 27.00786533 -29.42130184 22.961411 -24.31030273 18.85253906 C-21.16639629 16.33156663 -17.99000911 13.85335578 -14.8125 11.375 C-11.03804189 8.42523059 -7.30204312 5.45849123 -3.6875 2.3125 C-1 0 -1 0 0 0 Z " fill="#029476" transform="translate(142,75)"/>
<path d="M0 0 C5.0937736 3.01506452 7.50429224 7.29963841 9.50967407 12.83959961 C10.72902165 17.6315999 10.48738041 22.50021343 10.41796875 27.4140625 C10.41372391 28.55693726 10.40947906 29.69981201 10.40510559 30.87731934 C10.38839974 34.50439659 10.35076156 38.130905 10.3125 41.7578125 C10.29744275 44.22655444 10.28375617 46.69530514 10.27148438 49.1640625 C10.23852257 55.19552952 10.18679547 61.22657477 10.125 67.2578125 C4.515 67.2578125 -1.095 67.2578125 -6.875 67.2578125 C-6.88958252 65.89575684 -6.90416504 64.53370117 -6.91918945 63.13037109 C-6.97727305 58.06467777 -7.05450591 52.99942425 -7.13745117 47.93408203 C-7.1706531 45.74405062 -7.1986997 43.55393461 -7.22143555 41.36376953 C-7.25506809 38.2108972 -7.30738948 35.05879677 -7.36328125 31.90625 C-7.36967117 30.93102386 -7.3760611 29.95579773 -7.38264465 28.95101929 C-7.51617061 22.74156978 -8.21504807 18.10776099 -12.625 13.3828125 C-15.92818727 11.73121887 -18.22572662 11.81738295 -21.875 12.2578125 C-27.08497533 15.06318383 -30.00670561 17.73210327 -31.92724609 23.31860352 C-33.13085494 27.68983097 -33.22526839 31.9608778 -33.2890625 36.47265625 C-33.30842865 37.32839737 -33.3277948 38.18413849 -33.3477478 39.06581116 C-33.40710914 41.77554633 -33.45375366 44.485325 -33.5 47.1953125 C-33.53821985 49.04233534 -33.57727387 50.88934111 -33.6171875 52.73632812 C-33.71433132 57.24339638 -33.7942431 61.75030223 -33.875 66.2578125 C-39.815 66.2578125 -45.755 66.2578125 -51.875 66.2578125 C-51.875 44.1478125 -51.875 22.0378125 -51.875 -0.7421875 C-46.265 -0.7421875 -40.655 -0.7421875 -34.875 -0.7421875 C-34.545 1.5678125 -34.215 3.8778125 -33.875 6.2578125 C-33.45089844 5.85949219 -33.02679688 5.46117188 -32.58984375 5.05078125 C-22.95675024 -3.65076036 -11.95610831 -5.47988298 0 0 Z " fill="#1E1E1C" transform="translate(503.875,74.7421875)"/>
<path d="M0 0 C17.16 0 34.32 0 52 0 C52 4.62 52 9.24 52 14 C41.11 14 30.22 14 19 14 C19 21.59 19 29.18 19 37 C29.23 37 39.46 37 50 37 C50 41.62 50 46.24 50 51 C39.77 51 29.54 51 19 51 C19 64.53 19 78.06 19 92 C12.73 92 6.46 92 0 92 C0 61.64 0 31.28 0 0 Z " fill="#1F1F1D" transform="translate(188,50)"/>
<path d="M0 0 C-0.33 0.99 -0.66 1.98 -1 3 C-1.66 3 -2.32 3 -3 3 C-1.73223544 5.53552912 -0.53176935 5.84919575 2 7 C2.99 7.495 2.99 7.495 4 8 C4 12.62 4 17.24 4 22 C3.34 22 2.68 22 2 22 C1.67 18.04 1.34 14.08 1 10 C-0.41925781 10.89138672 -0.41925781 10.89138672 -1.8671875 11.80078125 C-22.81151612 24.93558757 -43.90120142 37.76803751 -65.57519531 49.66845703 C-67.2290832 50.57666329 -68.88204003 51.48656659 -70.53417969 52.39794922 C-91.38376086 63.89754078 -112.40252152 74.96652575 -134 85 C-134.33 91.6 -134.66 98.2 -135 105 C-130.15108556 102.37174261 -130.15108556 102.37174261 -125.30712891 99.734375 C-120.22222222 97 -120.22222222 97 -118 97 C-118 97.66 -118 98.32 -118 99 C-119.97946592 100.36363208 -121.9819245 101.69418644 -124 103 C-124.53625 103.598125 -125.0725 104.19625 -125.625 104.8125 C-126.305625 105.4003125 -126.305625 105.4003125 -127 106 C-128.34061543 105.69728039 -129.67405895 105.36162029 -131 105 C-131.9590625 105.495 -131.9590625 105.495 -132.9375 106 C-135 107 -135 107 -140 106 C-140 84.22 -140 62.44 -140 40 C-139.34 40 -138.68 40 -138 40 C-137.07446257 43.13850064 -136.88335353 45.93680778 -136.90234375 49.203125 C-136.90556641 50.1828125 -136.90878906 51.1625 -136.91210938 52.171875 C-136.92048828 53.18765625 -136.92886719 54.2034375 -136.9375 55.25 C-136.94201172 56.28125 -136.94652344 57.3125 -136.95117188 58.375 C-136.96293912 60.91672573 -136.97937989 63.45833319 -137 66 C-115.80450182 57.3866298 -115.80450182 57.3866298 -94.9765625 47.93212891 C-91.65557496 46.36598137 -88.30247361 44.87122437 -84.95410156 43.36474609 C-75.66598331 39.18179922 -66.46243938 34.89096046 -57.40234375 30.234375 C-55.61227174 29.31459816 -53.82029725 28.39852212 -52.02734375 27.484375 C-35.78106268 19.19664163 -19.55231898 10.80774218 -4.0546875 1.16796875 C-2 0 -2 0 0 0 Z " fill="#F5FCFB" transform="translate(140,36)"/>
<path d="M0 0 C-0.33 4.95 -0.66 9.9 -1 15 C-3.475 14.505 -3.475 14.505 -6 14 C-9.58399407 13.58307147 -9.58399407 13.58307147 -13 14 C-16.49670206 17.28378812 -16.47344235 20.62635471 -16.6875 25.25 C-16.790625 27.4775 -16.89375 29.705 -17 32 C-12.05 32 -7.1 32 -2 32 C-2 36.29 -2 40.58 -2 45 C-6.95 45 -11.9 45 -17 45 C-17 63.15 -17 81.3 -17 100 C-22.94 100 -28.88 100 -35 100 C-35 81.85 -35 63.7 -35 45 C-39.29 45 -43.58 45 -48 45 C-48 40.71 -48 36.42 -48 32 C-43.71 32 -39.42 32 -35 32 C-35.03480469 30.9378125 -35.06960938 29.875625 -35.10546875 28.78125 C-35.3151099 19.73352287 -35.1865335 13.1928694 -30.3125 5.25 C-22.17867296 -2.66399388 -10.55723672 -2.63930918 0 0 Z " fill="#20201E" transform="translate(730,42)"/>
<path d="M0 0 C1.15421532 4.67721241 1.35187538 8.34575746 0 13 C-3.90979409 17.53857429 -9.47240412 20.46333682 -14.55371094 23.51171875 C-17.69619392 25.42355271 -20.72738172 27.47907592 -23.76806641 29.54760742 C-27.48602085 32.07111511 -31.24495356 34.53218213 -35 37 C-35.66902344 37.44134277 -36.33804688 37.88268555 -37.02734375 38.33740234 C-56.483514 51.15246894 -76.37268841 63.29949868 -96.68798828 74.70214844 C-98.84576538 75.91342014 -100.9997311 77.13114279 -103.15234375 78.3515625 C-107.0932087 80.5827732 -111.04524668 82.79352346 -115 85 C-115.85674316 85.47953125 -116.71348633 85.9590625 -117.59619141 86.453125 C-120.35317019 87.99434765 -123.11362587 89.5291686 -125.875 91.0625 C-126.750354 91.55242432 -127.62570801 92.04234863 -128.52758789 92.54711914 C-129.34090576 92.99692139 -130.15422363 93.44672363 -130.9921875 93.91015625 C-131.71776855 94.31371338 -132.44334961 94.71727051 -133.19091797 95.13305664 C-135 96 -135 96 -137 96 C-137 89.4 -137 82.8 -137 76 C-120.58114303 67.24327628 -120.58114303 67.24327628 -112.3125 63.125 C-111.6716748 62.8057959 -111.03084961 62.4865918 -110.37060547 62.15771484 C-107.39880438 60.68081539 -104.42445689 59.20918327 -101.44775391 57.7421875 C-88.7646973 51.48865662 -76.27727647 45.01693389 -64 38 C-63.03078613 37.44828125 -62.06157227 36.8965625 -61.06298828 36.328125 C-41.53284583 25.19742588 -22.14887806 13.81370279 -3.3515625 1.4765625 C-1 0 -1 0 0 0 Z " fill="#099477" transform="translate(142,45)"/>
<path d="M0 0 C0 1.98 0 3.96 0 6 C-5.99374631 9.34465844 -11.99415803 12.67710904 -18 16 C-19.27544678 16.70576172 -19.27544678 16.70576172 -20.57666016 17.42578125 C-44.96379708 30.89226644 -69.63236944 43.4898178 -95 55 C-96.84643203 55.84357959 -98.69279173 56.68731754 -100.5390625 57.53125 C-108.83634311 61.30920783 -117.17813091 64.98194964 -125.5625 68.5625 C-126.36695557 68.90966064 -127.17141113 69.25682129 -128.00024414 69.61450195 C-128.74395264 69.92863037 -129.48766113 70.24275879 -130.25390625 70.56640625 C-130.90689697 70.84427979 -131.5598877 71.12215332 -132.23266602 71.40844727 C-134 72 -134 72 -137 72 C-137 63.42 -137 54.84 -137 46 C-133.101875 44.9790625 -133.101875 44.9790625 -129.125 43.9375 C-126.42048736 43.2251786 -123.71654538 42.51073052 -121.01269531 41.79589844 C-118.9602764 41.25368728 -116.90752814 40.71272162 -114.85449219 40.17285156 C-101.50902865 36.65834488 -88.27164916 32.97051552 -75.15087891 28.69091797 C-73.00653588 28.00209949 -70.85547877 27.34187884 -68.69921875 26.69140625 C-68.00135254 26.4795166 -67.30348633 26.26762695 -66.58447266 26.04931641 C-64.72523908 25.48674223 -62.86463584 24.92869987 -61.00390625 24.37109375 C-56.61828054 22.94973591 -52.40842614 21.12199087 -48.1652832 19.3269043 C-45.11020839 18.04619997 -42.04043053 16.81618838 -38.95703125 15.60546875 C-28.4923307 11.48983495 -18.11190659 7.34929668 -8.03833008 2.33666992 C-5.14941785 0.9142369 -3.26900569 0 0 0 Z " fill="#079477" transform="translate(142,29)"/>
<path d="M0 0 C0 5.61 0 11.22 0 17 C-3.0628125 17.0928125 -3.0628125 17.0928125 -6.1875 17.1875 C-11.48306528 17.61040219 -11.48306528 17.61040219 -16.125 20.0625 C-20.35791243 26.6940628 -21.45114957 32.61768457 -21.51171875 40.3125 C-21.52966995 41.16682617 -21.54762115 42.02115234 -21.56611633 42.90136719 C-21.61982618 45.60086286 -21.65398739 48.30018582 -21.6875 51 C-21.7207079 52.84247176 -21.75520073 54.68492083 -21.79101562 56.52734375 C-21.87792332 61.01824859 -21.93832551 65.50839601 -22 70 C-27.94 70 -33.88 70 -40 70 C-40 47.23 -40 24.46 -40 1 C-34.72 1 -29.44 1 -24 1 C-23.67 4.96 -23.34 8.92 -23 13 C-22.525625 11.96875 -22.05125 10.9375 -21.5625 9.875 C-16.57192592 1.27720396 -9.43161822 -0.79703816 0 0 Z " fill="#21211F" transform="translate(851,72)"/>
<path d="M0 0 C0 5.94 0 11.88 0 18 C-3.22265625 17.86979167 -6.4453125 17.73958333 -9.66796875 17.609375 C-13.80054109 18.09385007 -15.20537706 18.93025874 -18 22 C-20.67238334 27.93340452 -21.46085361 32.85050294 -21.51171875 39.3125 C-21.52966995 40.16682617 -21.54762115 41.02115234 -21.56611633 41.90136719 C-21.61982618 44.60086286 -21.65398739 47.30018582 -21.6875 50 C-21.7207079 51.84247176 -21.75520073 53.68492083 -21.79101562 55.52734375 C-21.87792332 60.01824859 -21.93832551 64.50839601 -22 69 C-27.94 69 -33.88 69 -40 69 C-40 46.56 -40 24.12 -40 1 C-34.72 1 -29.44 1 -24 1 C-23.67 4.63 -23.34 8.26 -23 12 C-22.154375 10.7625 -21.30875 9.525 -20.4375 8.25 C-14.53307042 0.48753314 -9.57543729 -0.5246815 0 0 Z " fill="#1F1F1D" transform="translate(292,72)"/>
<path d="M0 0 C4.95 0 9.9 0 15 0 C17.56796789 6.57399781 19.66158458 13.2413093 21.6875 20 C22.00783203 21.06089844 22.32816406 22.12179688 22.65820312 23.21484375 C23.4411813 25.80918936 24.2217197 28.40424199 25 31 C27.93326043 24.07351404 30.25458268 17.12365883 32.25 9.875 C32.518125 8.91851562 32.78625 7.96203125 33.0625 6.9765625 C33.71326107 4.6524158 34.35734755 2.32640187 35 0 C40.28 0 45.56 0 51 0 C51 15.18 51 30.36 51 46 C48.03 46 45.06 46 42 46 C41.67 35.11 41.34 24.22 41 13 C39.72125 16.96 38.4425 20.92 37.125 25 C36.72555176 26.23234375 36.32610352 27.4646875 35.91455078 28.734375 C34.07584875 34.455193 32.36286189 40.14686681 31 46 C27.7 46 24.4 46 21 46 C17.7 35.44 14.4 24.88 11 14 C10.67 24.56 10.34 35.12 10 46 C6.7 46 3.4 46 0 46 C0 30.82 0 15.64 0 0 Z " fill="#2A2A29" transform="translate(801,188)"/>
<path d="M0 0 C0 2.31 0 4.62 0 7 C-19.91543794 16.3584002 -40.13860412 24.04871128 -61 31 C-62.05638672 31.35433105 -63.11277344 31.70866211 -64.20117188 32.07373047 C-76.45029096 36.13390182 -88.8871528 39.28543183 -101.4375 42.25 C-102.14471191 42.41721558 -102.85192383 42.58443115 -103.58056641 42.75671387 C-111.30684759 44.57214687 -119.04967013 46.25477049 -126.84765625 47.734375 C-127.85873695 47.92740204 -127.85873695 47.92740204 -128.89024353 48.12432861 C-131.64699971 48.63422783 -134.18868255 49 -137 49 C-137 43.72 -137 38.44 -137 33 C-135.89011719 32.92523438 -134.78023437 32.85046875 -133.63671875 32.7734375 C-89.5986118 29.38909602 -46.21215226 18.40587534 -5.515625 1.3984375 C-2 0 -2 0 0 0 Z " fill="#0C9477" transform="translate(142,16)"/>
<path d="M0 0 C4.92111954 3.28074636 7.99959592 7.27585376 9.8125 12.875 C10.67217801 21.15189987 10.49266624 28.78703119 5.8125 35.875 C0.76757523 41.64062831 0.76757523 41.64062831 -3.76171875 42.18359375 C-13.209104 42.57476528 -13.209104 42.57476528 -17.25 39.375 C-23.40406301 32.84568924 -23.6962643 25.63607812 -23.68432617 17.10766602 C-23.48735989 11.30197269 -22.38426871 7.10774101 -18.1875 2.875 C-12.93683753 -1.91236872 -6.50984773 -2.29759332 0 0 Z " fill="#FAFAFA" transform="translate(649.1875,87.125)"/>
<path d="M0 0 C5.61 0 11.22 0 17 0 C17 22.11 17 44.22 17 67 C11.72 67 6.44 67 1 67 C1 61 1 61 2 58 C1.67 57.34 1.34 56.68 1 56 C-1.32156597 55.59270772 -3.6568787 55.25561323 -6 55 C-4 49 -4 49 -3.24577332 47.02186584 C-1.16834625 41.3730326 -0.5344951 36.36305301 -0.48828125 30.37109375 C-0.47033005 29.49598648 -0.45237885 28.62087921 -0.43388367 27.71925354 C-0.38024698 24.95871623 -0.34603646 22.19834705 -0.3125 19.4375 C-0.27928562 17.55140912 -0.24479222 15.6653403 -0.20898438 13.77929688 C-0.12216942 9.18617999 -0.06170452 4.5937953 0 0 Z " fill="#1D1D1B" transform="translate(417,74)"/>
<path d="M0 0 C0.81011454 6.9417154 0.81011454 6.9417154 -1.19384766 9.55957031 C-2.99748864 11.05086691 -4.85382947 12.34376783 -6.8125 13.625 C-8.29334253 14.66092422 -9.77379552 15.69740547 -11.25390625 16.734375 C-12.0339502 17.26740234 -12.81399414 17.80042969 -13.61767578 18.34960938 C-16.77003805 20.53345534 -19.83461106 22.82551469 -22.90478516 25.12280273 C-46.86409886 43.02369743 -71.73616002 59.24069046 -97.45483398 74.48876953 C-99.18453063 75.51580284 -100.89249395 76.58015486 -102.57910156 77.67651367 C-106.07453907 79.58744214 -109.44226504 79.32238755 -113.3125 79.1875 C-114.42334961 79.16719727 -114.42334961 79.16719727 -115.55664062 79.14648438 C-117.37141075 79.11135979 -119.18580288 79.05755972 -121 79 C-121 78.34 -121 77.68 -121 77 C-120.35313232 76.65316162 -119.70626465 76.30632324 -119.03979492 75.94897461 C-111.69809869 71.98220086 -104.48697142 67.82332604 -97.3125 63.5625 C-96.73439575 63.21950867 -96.1562915 62.87651733 -95.56066895 62.52313232 C-78.67655162 52.49685353 -61.97118887 42.17870139 -45.71679688 31.15625 C-43.94970937 29.96612963 -42.17205615 28.79352718 -40.390625 27.625 C-27.74839376 19.31729584 -15.23850539 10.66766414 -3.53125 1.07421875 C-2 0 -2 0 0 0 Z " fill="#129478" transform="translate(142,62)"/>
<path d="M0 0 C20.73065903 0 20.73065903 0 27 4 C30.67013871 8.84490717 30.68524918 13.1425276 30 19 C28.6990404 22.7659357 27.74929039 24.44283535 24.5625 26.8125 C19.00697181 29.38701306 15.50808189 29 9 29 C9 34.94 9 40.88 9 47 C6.03 47 3.06 47 0 47 C0 31.49 0 15.98 0 0 Z " fill="#212120" transform="translate(762,188)"/>
<path d="M0 0 C0.99 1.32 1.98 2.64 3 4 C2.29488281 4.23847656 1.58976562 4.47695313 0.86328125 4.72265625 C-2.49161033 6.2193132 -4.94670095 8.13823889 -7.8125 10.4375 C-15.29196683 16.33290177 -23.10233945 21.68434172 -31 27 C-31.61069336 27.41217773 -32.22138672 27.82435547 -32.85058594 28.24902344 C-37.21660551 31.19211431 -41.60388119 34.10210532 -46 37 C-46.72074707 37.47630859 -47.44149414 37.95261719 -48.18408203 38.44335938 C-66.01650088 50.20735321 -84.15008014 61.52095463 -102.625 72.25 C-103.36371338 72.67941895 -104.10242676 73.10883789 -104.86352539 73.55126953 C-109.49545589 76.21322474 -114.20230245 78.64966727 -119 81 C-119.33 80.01 -119.66 79.02 -120 78 C-119.01 77.01 -119.01 77.01 -118 76 C-118.33 75.34 -118.66 74.68 -119 74 C-117.56442774 73.12184083 -116.12638099 72.24772719 -114.6875 71.375 C-113.88699219 70.88773437 -113.08648437 70.40046875 -112.26171875 69.8984375 C-108.51686568 67.71879847 -104.71817301 65.65212301 -100.91088867 63.58398438 C-83.88839625 54.321053 -67.34163427 44.4137564 -51 34 C-50.26861816 33.5354541 -49.53723633 33.0709082 -48.78369141 32.59228516 C-36.57618652 24.83371089 -24.59805549 16.75087608 -12.6730957 8.56738281 C-8.46769182 5.68203151 -4.25192749 2.81638927 0 0 Z " fill="#DAF7F4" transform="translate(141,58)"/>
<path d="M0 0 C-0.66 0.99 -1.32 1.98 -2 3 C-1.505 4.485 -1.505 4.485 -1 6 C-2.62339805 7.70884005 -4.29319053 9.37446717 -6 11 C-6.66 11 -7.32 11 -8 11 C-8.33 11.66 -8.66 12.32 -9 13 C-9.68449219 12.51273438 -10.36898437 12.02546875 -11.07421875 11.5234375 C-16.78316901 8.55081987 -24.31288714 9.0941896 -30.48046875 10.609375 C-32.35526544 11.32012964 -34.18144481 12.1556708 -36 13 C-37.98 13.66 -39.96 14.32 -42 15 C-42.33 10.38 -42.66 5.76 -43 1 C-30.30525008 -5.34737496 -12.65618208 -7.49995975 0 0 Z " fill="#212120" transform="translate(347,77)"/>
<path d="M0 0 C1.18239258 0.01353516 1.18239258 0.01353516 2.38867188 0.02734375 C4.32174666 0.05077496 6.2546638 0.08664162 8.1875 0.125 C8.35653988 6.39247845 8.2047986 10.15060205 4.1875 15.125 C0.53818627 18.59629842 -2.40713354 19.43457744 -7.3125 19.6875 C-10.97417112 19.5426317 -13.51961516 19.18750336 -16.5 17 C-18.8125 14.125 -18.8125 14.125 -19.5 11.1875 C-18.57135087 7.05079022 -16.8241753 5.06974918 -13.8125 2.125 C-9.30672501 -0.34323703 -4.99162292 -0.10878642 0 0 Z " fill="#F9F9F8" transform="translate(332.8125,110.875)"/>
<path d="M0 0 C2.97 0 5.94 0 9 0 C9 15.18 9 30.36 9 46 C6.03 46 3.06 46 0 46 C0 30.82 0 15.64 0 0 Z " fill="#1E1E1D" transform="translate(741,188)"/>
<path d="M0 0 C0.99 0.33 1.98 0.66 3 1 C2.67 1.66 2.34 2.32 2 3 C2.99 3.495 2.99 3.495 4 4 C3.67 26.44 3.34 48.88 3 72 C-26.04 72 -55.08 72 -85 72 C-84.505 71.01 -84.505 71.01 -84 70 C-41.43 70.495 -41.43 70.495 2 71 C1.67 49.55 1.34 28.1 1 6 C-1.97 8.64 -4.94 11.28 -8 14 C-10.69205034 16.15178794 -13.41534856 18.24396412 -16.16577148 20.31958008 C-18.71356679 22.24686814 -21.22957427 24.18992356 -23.69140625 26.2265625 C-24.47386719 26.87367187 -25.25632813 27.52078125 -26.0625 28.1875 C-26.73410156 28.75855469 -27.40570313 29.32960938 -28.09765625 29.91796875 C-30 31 -30 31 -32.24609375 30.67578125 C-33.11427734 30.34126953 -33.11427734 30.34126953 -34 30 C-33.66638724 27.10049003 -33.4344254 25.44577402 -31.36450195 23.32177734 C-30.66284912 22.8314502 -29.96119629 22.34112305 -29.23828125 21.8359375 C-28.06362305 20.99591187 -28.06362305 20.99591187 -26.86523438 20.13891602 C-26.02283203 19.55682373 -25.18042969 18.97473145 -24.3125 18.375 C-22.57781693 17.14419327 -20.8447585 15.91109379 -19.11328125 14.67578125 C-18.25041504 14.06299316 -17.38754883 13.45020508 -16.49853516 12.81884766 C-12.29001042 9.7551864 -8.25967315 6.46548386 -4.27856445 3.11279297 C-2.6875 1.81640625 -2.6875 1.81640625 0 0 Z " fill="#E6FAF9" transform="translate(140,70)"/>
<path d="M0 0 C3.35326619 2.28631786 4.88067274 4.27481417 6.75 7.875 C7.08 10.185 7.41 12.495 7.75 14.875 C-2.15 14.875 -12.05 14.875 -22.25 14.875 C-21.03604651 6.37732558 -21.03604651 6.37732558 -17.25 1.875 C-11.60641422 -1.9728994 -6.30738386 -2.18332518 0 0 Z " fill="#F2F2F1" transform="translate(774.25,86.125)"/>
<path d="M0 0 C0.495 1.485 0.495 1.485 1 3 C1.66 3.66 2.32 4.32 3 5 C-8.96401591 14.22450115 -20.99718004 23.28944922 -33.42236328 31.88525391 C-34.75557996 32.82729466 -36.05242038 33.82050137 -37.33984375 34.82421875 C-39 36 -39 36 -41 36 C-39.982983 32.94894899 -39.17353952 32.17353952 -37 30 C-37 29.34 -37 28.68 -37 28 C-37.33 27.67 -37.66 27.34 -38 27 C-38.33 26.34 -38.66 25.68 -39 25 C-38.12786865 24.42032471 -37.2557373 23.84064941 -36.35717773 23.2434082 C-33.09303102 21.07338602 -29.8299348 18.90178858 -26.56713867 16.72973633 C-25.16019414 15.79343999 -23.75297264 14.85755971 -22.34545898 13.92211914 C-20.31159025 12.57029217 -18.27875302 11.21692594 -16.24609375 9.86328125 C-15.62600937 9.45161209 -15.00592499 9.03994293 -14.36705017 8.61579895 C-11.25057044 6.53827655 -8.19067973 4.41397672 -5.17211914 2.19604492 C-2 0 -2 0 0 0 Z " fill="#DAF6F2" transform="translate(106,97)"/>
<path d="M0 0 C1.32 0 2.64 0 4 0 C1.14164414 10.70629784 -1.94410846 21.34888289 -5 32 C-8.3 32 -11.6 32 -15 32 C-18.66502463 21.76847291 -18.66502463 21.76847291 -18 18 C-16.5 16.1875 -16.5 16.1875 -15 15 C-13.68 15.66 -12.36 16.32 -11 17 C-10.649375 15.96875 -10.29875 14.9375 -9.9375 13.875 C-8.29693993 9.95192158 -5.90790248 7.93468811 -2.5234375 5.45703125 C-0.70121691 3.71424079 -0.38894279 2.45454438 0 0 Z " fill="#222221" transform="translate(837,202)"/>
<path d="M0 0 C0.79277344 0.57041016 0.79277344 0.57041016 1.6015625 1.15234375 C-5.48051448 8.23442073 -20.05891606 11.25020766 -29.2734375 14.27734375 C-29.92298401 14.49267761 -30.57253052 14.70801147 -31.24176025 14.92987061 C-40.86193659 18.11609004 -50.48297913 21.02986544 -60.3984375 23.15234375 C-60.3984375 22.49234375 -60.3984375 21.83234375 -60.3984375 21.15234375 C-59.4084375 21.15234375 -58.4184375 21.15234375 -57.3984375 21.15234375 C-57.3984375 20.49234375 -57.3984375 19.83234375 -57.3984375 19.15234375 C-60.3684375 19.48234375 -63.3384375 19.81234375 -66.3984375 20.15234375 C-63.53597501 18.24403542 -61.90015243 17.6464823 -58.62890625 16.890625 C-57.18825806 16.54837891 -57.18825806 16.54837891 -55.71850586 16.19921875 C-54.16788452 15.83570313 -54.16788452 15.83570313 -52.5859375 15.46484375 C-36.38674198 11.53450706 -20.51539417 6.88032086 -5.296875 0.0234375 C-2.3984375 -0.84765625 -2.3984375 -0.84765625 0 0 Z " fill="#D6F6F3" transform="translate(140.3984375,13.84765625)"/>
<path d="M0 0 C0.99 0.33 1.98 0.66 3 1 C2.67 1.66 2.34 2.32 2 3 C2.99 3.495 2.99 3.495 4 4 C3.67 26.44 3.34 48.88 3 72 C-26.04 72 -55.08 72 -85 72 C-84.505 71.01 -84.505 71.01 -84 70 C-41.43 70.495 -41.43 70.495 2 71 C2 49.22 2 27.44 2 5 C0.68 5 -0.64 5 -2 5 C-2.33 5.66 -2.66 6.32 -3 7 C-3.495 5.02 -3.495 5.02 -4 3 C-2.1875 1.4375 -2.1875 1.4375 0 0 Z " fill="#B1E6DC" transform="translate(140,70)"/>
<path d="M0 0 C0 21.78 0 43.56 0 66 C-25.08 66 -50.16 66 -76 66 C-76 65.67 -76 65.34 -76 65 C-51.25 65 -26.5 65 -1 65 C-1 45.2 -1 25.4 -1 5 C-2.65 5.99 -4.3 6.98 -6 8 C-6.99 7.01 -6.99 7.01 -8 6 C-6.85675161 4.9970458 -5.71032809 3.99770973 -4.5625 3 C-3.92441406 2.443125 -3.28632813 1.88625 -2.62890625 1.3125 C-1 0 -1 0 0 0 Z " fill="#148A6E" transform="translate(142,75)"/>
<path d="M0 0 C3.46093134 -0.19966912 6.2014503 -0.32761013 9.4375 1 C12.00888305 4.29137031 11.454837 6.90646698 11 11 C7.91111478 13.05925681 7.29064073 13.2390374 3.8125 13.125 C1.9253125 13.063125 1.9253125 13.063125 0 13 C0 8.71 0 4.42 0 0 Z " fill="#F9F9F8" transform="translate(771,196)"/>
<path d="M0 0 C3 1 3 1 4 3 C3.34 3 2.68 3 2 3 C1.67 4.32 1.34 5.64 1 7 C1.763125 7.0825 2.52625 7.165 3.3125 7.25 C6.52373261 8.14615794 7.29374499 9.21611025 9 12 C4.34932255 13.76405007 -0.27645553 15.42548518 -5 17 C-5.33 12.38 -5.66 7.76 -6 3 C-4.02 2.01 -2.04 1.02 0 0 Z " fill="#292927" transform="translate(310,75)"/>
<path d="M0 0 C0 0.66 0 1.32 0 2 C-0.99 2 -1.98 2 -3 2 C-3 2.66 -3 3.32 -3 4 C-1.35 4 0.3 4 2 4 C2 3.34 2 2.68 2 2 C6.1077065 0.41293158 7.59232396 -0.10191901 12 1 C1.605 5.455 1.605 5.455 -9 10 C-9.33 9.34 -9.66 8.68 -10 8 C-9.67 7.34 -9.34 6.68 -9 6 C-13.455 6.495 -13.455 6.495 -18 7 C-14.87351251 4.91567501 -11.94269132 3.71441389 -8.4375 2.375 C-7.28121094 1.92898437 -6.12492187 1.48296875 -4.93359375 1.0234375 C-2 0 -2 0 0 0 Z " fill="#D8F7F2" transform="translate(119,33)"/>
<path d="M0 0 C0.99 0.33 1.98 0.66 3 1 C2.67 7.6 2.34 14.2 2 21 C6.84891444 18.37174261 6.84891444 18.37174261 11.69287109 15.734375 C16.77777778 13 16.77777778 13 19 13 C19 13.66 19 14.32 19 15 C17.02053408 16.36363208 15.0180755 17.69418644 13 19 C12.46375 19.598125 11.9275 20.19625 11.375 20.8125 C10.92125 21.204375 10.4675 21.59625 10 22 C8.65938457 21.69728039 7.32594105 21.36162029 6 21 C5.360625 21.33 4.72125 21.66 4.0625 22 C1.35978665 23.31040647 -0.17002588 22.78610392 -3 22 C-3 21.01 -3 20.02 -3 19 C-2.01 18.67 -1.02 18.34 0 18 C0 12.06 0 6.12 0 0 Z " fill="#DEFBF9" transform="translate(3,120)"/>
<path d="M0 0 C1.32 0.99 2.64 1.98 4 3 C3.64652979 5.74528527 3.28441243 6.76612366 1.109375 8.5546875 C-5.32008963 12.15263294 -5.32008963 12.15263294 -9.0625 11.3125 C-10.0215625 10.6628125 -10.0215625 10.6628125 -11 10 C-10.38125 9.773125 -9.7625 9.54625 -9.125 9.3125 C-6.75610871 8.15195665 -6.75610871 8.15195665 -6.0625 5.4375 C-5.711875 4.633125 -5.36125 3.82875 -5 3 C-2.375 2.1875 -2.375 2.1875 0 2 C0 1.34 0 0.68 0 0 Z " fill="#0A9275" transform="translate(119,39)"/>
<path d="M0 0 C2.05078125 0.03255208 4.1015625 0.06510417 6.15234375 0.09765625 C3.15234375 2.09765625 3.15234375 2.09765625 0.15234375 2.09765625 C0.48234375 11.00765625 0.81234375 19.91765625 1.15234375 29.09765625 C0.16234375 29.09765625 -0.82765625 29.09765625 -1.84765625 29.09765625 C-2.01494689 25.12858151 -2.17553851 21.15929904 -2.32983398 17.18969727 C-2.38331427 15.83838546 -2.43864819 14.48714573 -2.49584961 13.13598633 C-2.57759196 11.19762636 -2.65218948 9.25896921 -2.7265625 7.3203125 C-2.77369385 6.15250244 -2.8208252 4.98469238 -2.86938477 3.78149414 C-2.83998482 0.15010491 -2.83998482 0.15010491 0 0 Z " fill="#BFE9E2" transform="translate(4.84765625,72.90234375)"/>
<path d="M0 0 C0.33 0 0.66 0 1 0 C1.33 2.31 1.66 4.62 2 7 C3.32 6.01 4.64 5.02 6 4 C6 4.99 6 5.98 6 7 C7.83984081 9.65754784 8.97085535 9.9937139 12.1875 10.6875 C13.5796875 10.8421875 13.5796875 10.8421875 15 11 C12.63379989 13.61527381 10.057952 15.26440562 7 17 C6.34 15.68 5.68 14.36 5 13 C3.68 13 2.36 13 1 13 C1.33 12.01 1.66 11.02 2 10 C1.34 9.67 0.68 9.34 0 9 C0 6.03 0 3.06 0 0 Z " fill="#2D2D2B" transform="translate(468,74)"/>
<path d="M0 0 C-0.33 0.99 -0.66 1.98 -1 3 C-1.66 3 -2.32 3 -3 3 C-3 3.66 -3 4.32 -3 5 C-6.87684087 6.19287411 -9.91621923 7 -14 7 C-14 7.66 -14 8.32 -14 9 C-15.65 9 -17.3 9 -19 9 C-19 8.34 -19 7.68 -19 7 C-18.01 7 -17.02 7 -16 7 C-15.67 6.01 -15.34 5.02 -15 4 C-10.30406574 1.04403296 -5.57686747 -0.57198641 0 0 Z " fill="#E9F9F7" transform="translate(135,28)"/>
<path d="M0 0 C1.0625 1.8125 1.0625 1.8125 2 4 C1.67 4.99 1.34 5.98 1 7 C1.66 7 2.32 7 3 7 C3 6.34 3 5.68 3 5 C3.99 5.33 4.98 5.66 6 6 C4.04594482 7.50587739 2.08718716 9.00478644 0.125 10.5 C-0.43058594 10.92925781 -0.98617187 11.35851562 -1.55859375 11.80078125 C-5.7734375 15 -5.7734375 15 -8 15 C-6.982983 11.94894899 -6.17353952 11.17353952 -4 9 C-4 8.34 -4 7.68 -4 7 C-4.33 6.67 -4.66 6.34 -5 6 C-5.33 5.34 -5.66 4.68 -6 4 C-4.02 2.68 -2.04 1.36 0 0 Z " fill="#E1F8F6" transform="translate(73,118)"/>
<path d="M0 0 C-1.65 0.33 -3.3 0.66 -5 1 C-5 1.66 -5 2.32 -5 3 C-5.99 3 -6.98 3 -8 3 C-8 3.66 -8 4.32 -8 5 C-9.65 4.67 -11.3 4.34 -13 4 C-13 5.32 -13 6.64 -13 8 C-15.8125 9.5625 -15.8125 9.5625 -19 11 C-19.99 10.67 -20.98 10.34 -22 10 C-16.43541429 4.46650136 -8.4020255 -2.92914651 0 0 Z " fill="#262624" transform="translate(636,74)"/>
<path d="M0 0 C0.66 0.33 1.32 0.66 2 1 C0.18030443 5.98021945 -1.19823139 9.25613222 -6 12 C-8.8125 11.75 -8.8125 11.75 -11 11 C-11 10.34 -11 9.68 -11 9 C-9.609375 7.8515625 -9.609375 7.8515625 -7.75 6.625 C-4.85543529 4.64636246 -2.3923583 2.58374696 0 0 Z " fill="#F7FBFB" transform="translate(99,102)"/>
<path d="M0 0 C-1.24631444 3.84280285 -2.36048692 6.07319896 -6 8 C-8.25 7.6875 -8.25 7.6875 -10 7 C-10 7.99 -10 8.98 -10 10 C-10.99 10 -11.98 10 -13 10 C-12.67 8.68 -12.34 7.36 -12 6 C-11.34 6 -10.68 6 -10 6 C-9.67 4.35 -9.34 2.7 -9 1 C-5.846632 0.29925156 -3.27275026 0 0 0 Z " fill="#069276" transform="translate(91,102)"/>
<path d="M0 0 C0 0.66 0 1.32 0 2 C-0.66 2 -1.32 2 -2 2 C-2.0825 2.598125 -2.165 3.19625 -2.25 3.8125 C-3.23275289 6.6788626 -4.35827876 7.56592275 -7 9 C-9.25 8.6875 -9.25 8.6875 -11 8 C-10.875 5.6875 -10.875 5.6875 -10 3 C-6.33634907 0.63898051 -4.40218532 0 0 0 Z " fill="#E4FBF8" transform="translate(117,92)"/>
<path d="M0 0 C2.64 0 5.28 0 8 0 C5 2 5 2 3 3 C2.5316735 5.58605332 2.5316735 5.58605332 2.375 8.5625 C2.25125 10.356875 2.1275 12.15125 2 14 C7.445 13.505 7.445 13.505 13 13 C13 13.33 13 13.66 13 14 C8.71 14.66 4.42 15.32 0 16 C0 10.72 0 5.44 0 0 Z " fill="#2C8F7A" transform="translate(5,49)"/>
<path d="M0 0 C0.33 0.99 0.66 1.98 1 3 C0.01 3.33 -0.98 3.66 -2 4 C-2.845625 4.845625 -3.69125 5.69125 -4.5625 6.5625 C-5.366875 7.366875 -6.17125 8.17125 -7 9 C-7.66 9 -8.32 9 -9 9 C-9.33 9.66 -9.66 10.32 -10 11 C-11.64551962 11.71727778 -13.31422289 12.38325228 -15 13 C-15.99 13.495 -15.99 13.495 -17 14 C-17.66 13.34 -18.32 12.68 -19 12 C-18.53102295 11.70754395 -18.0620459 11.41508789 -17.57885742 11.11376953 C-15.44810835 9.7846545 -13.31779997 8.45483472 -11.1875 7.125 C-10.44951172 6.66480469 -9.71152344 6.20460938 -8.95117188 5.73046875 C-8.23896484 5.28574219 -7.52675781 4.84101562 -6.79296875 4.3828125 C-5.81106567 3.77010498 -5.81106567 3.77010498 -4.80932617 3.14501953 C-3.1907533 2.1207169 -1.59375623 1.06250416 0 0 Z " fill="#1C9779" transform="translate(141,45)"/>
<path d="M0 0 C-2 2 -2 2 -9 5 C-9.33 11.93 -9.66 18.86 -10 26 C-9.01 26.33 -8.02 26.66 -7 27 C-8.32 27.33 -9.64 27.66 -11 28 C-11 19.42 -11 10.84 -11 2 C-4.25 -0.25 -4.25 -0.25 0 0 Z " fill="#188A70" transform="translate(16,73)"/>
<path d="M0 0 C0.66 0.33 1.32 0.66 2 1 C1.67 1.99 1.34 2.98 1 4 C0.38125 4.12375 -0.2375 4.2475 -0.875 4.375 C-3.26363453 4.83060218 -3.26363453 4.83060218 -4.625 7.4375 C-5.07875 8.283125 -5.5325 9.12875 -6 10 C-8.76223278 12.76223278 -11.20706617 12.57856291 -15 13 C-10.43369266 8.12927217 -5.25023461 4.10843602 0 0 Z " fill="#24977F" transform="translate(125,88)"/>
<path d="M0 0 C-0.99 0.33 -1.98 0.66 -3 1 C-3.33 1.99 -3.66 2.98 -4 4 C-4.66 4 -5.32 4 -6 4 C-6 4.99 -6 5.98 -6 7 C-6.99 7 -7.98 7 -9 7 C-9 7.66 -9 8.32 -9 9 C-9.99 9 -10.98 9 -12 9 C-11.67 6.69 -11.34 4.38 -11 2 C-9.54494642 1.47007308 -8.08581873 0.9513211 -6.625 0.4375 C-5.81289062 0.14746094 -5.00078125 -0.14257812 -4.1640625 -0.44140625 C-2 -1 -2 -1 0 0 Z " fill="#049475" transform="translate(100,34)"/>
<path d="M0 0 C0.66 0.33 1.32 0.66 2 1 C0.92456217 1.98783194 -0.16073217 2.96493943 -1.25 3.9375 C-1.85328125 4.48277344 -2.4565625 5.02804688 -3.078125 5.58984375 C-6.41689066 8.03962913 -9.71568259 8.12361742 -13.765625 8.09765625 C-14.65507813 8.09443359 -15.54453125 8.09121094 -16.4609375 8.08789062 C-17.38132812 8.07951172 -18.30171875 8.07113281 -19.25 8.0625 C-20.65378906 8.05573242 -20.65378906 8.05573242 -22.0859375 8.04882812 C-24.39069041 8.03706918 -26.69531227 8.02063426 -29 8 C-28.67 7.34 -28.34 6.68 -28 6 C-26.22496094 6.10441406 -26.22496094 6.10441406 -24.4140625 6.2109375 C-15.59587572 6.56810391 -9.07357121 6.82195296 -1.75 1.21484375 C-0.88375 0.61349609 -0.88375 0.61349609 0 0 Z " fill="#ADE0D6" transform="translate(47,134)"/>
<path d="M0 0 C0.33 0.99 0.66 1.98 1 3 C-0.9375 5.6875 -0.9375 5.6875 -3 8 C-2.34 8.33 -1.68 8.66 -1 9 C-4.3 9 -7.6 9 -11 9 C-7.56638098 5.36440339 -4.2026393 2.63886654 0 0 Z " fill="#1C9377" transform="translate(67,132)"/>
<path d="M0 0 C2.31 0 4.62 0 7 0 C3.15651589 3.25048942 -0.82398529 5.78782869 -5.1875 8.25 C-6.13012695 8.79527344 -6.13012695 8.79527344 -7.09179688 9.3515625 C-11.74647556 12 -11.74647556 12 -14 12 C-14 11.34 -14 10.68 -14 10 C-13.34 10 -12.68 10 -12 10 C-12 9.34 -12 8.68 -12 8 C-10.02 7.67 -8.04 7.34 -6 7 C-6 6.34 -6 5.68 -6 5 C-5.01 5 -4.02 5 -3 5 C-3 4.34 -3 3.68 -3 3 C-2.01 2.34 -1.02 1.68 0 1 C0 0.67 0 0.34 0 0 Z " fill="#23937A" transform="translate(64,104)"/>
<path d="M0 0 C0.99 0 1.98 0 3 0 C3.08126087 2.08268593 3.13930839 4.16628658 3.1875 6.25 C3.23970703 7.99023438 3.23970703 7.99023438 3.29296875 9.765625 C3 13 3 13 0 17 C0 11.39 0 5.78 0 0 Z " fill="#FCFDFD" transform="translate(0,52)"/>
<path d="M0 0 C0.66 0.33 1.32 0.66 2 1 C2 1.66 2 2.32 2 3 C2.99 3.33 3.98 3.66 5 4 C3.8803014 5.00593243 2.7540588 6.0045849 1.625 7 C0.68527344 7.8353125 0.68527344 7.8353125 -0.2734375 8.6875 C-2 10 -2 10 -4 10 C-4 9.34 -4 8.68 -4 8 C-3.34 8 -2.68 8 -2 8 C-2 7.34 -2 6.68 -2 6 C-3.98 6.33 -5.96 6.66 -8 7 C-5.4837822 4.39391727 -2.94865641 2.10618315 0 0 Z " fill="#D7F6F3" transform="translate(119,86)"/>
<path d="M0 0 C0 0.99 0 1.98 0 3 C-5.12325529 5.45489316 -9.33895411 6.50341703 -15 7 C-15 6.34 -15 5.68 -15 5 C-13.35 4.67 -11.7 4.34 -10 4 C-10 3.34 -10 2.68 -10 2 C-6.7 1.34 -3.4 0.68 0 0 Z " fill="#E2FBFA" transform="translate(124,20)"/>
<path d="M0 0 C0.33 1.32 0.66 2.64 1 4 C1.66 4 2.32 4 3 4 C3.433125 3.505 3.86625 3.01 4.3125 2.5 C6 1 6 1 8.6875 0.8125 C9.8321875 0.9053125 9.8321875 0.9053125 11 1 C8.20375042 3.18697502 5.36692128 4.99152813 2.25 6.6875 C1.05117187 7.34298828 1.05117187 7.34298828 -0.171875 8.01171875 C-0.77515625 8.33785156 -1.3784375 8.66398437 -2 9 C-4 3.25 -4 3.25 -4 1 C-2 0 -2 0 0 0 Z " fill="#1B957A" transform="translate(124,37)"/>
<path d="M0 0 C-0.33 1.32 -0.66 2.64 -1 4 C-2.78871178 4.38885039 -4.58112874 4.76069196 -6.375 5.125 C-7.37273437 5.33382812 -8.37046875 5.54265625 -9.3984375 5.7578125 C-10.25695312 5.83773437 -11.11546875 5.91765625 -12 6 C-12.66 5.34 -13.32 4.68 -14 4 C-12.68 4 -11.36 4 -10 4 C-9.67 3.01 -9.34 2.02 -9 1 C-6.03421164 -0.16513114 -3.15436364 -0.08762121 0 0 Z " fill="#F8FDFD" transform="translate(110,39)"/>
<path d="M0 0 C2.8125 0.1875 2.8125 0.1875 6 1 C7.9375 3.3125 7.9375 3.3125 9 6 C8.6875 8.3125 8.6875 8.3125 8 10 C7.34 9.34 6.68 8.68 6 8 C5.01 8 4.02 8 3 8 C3.33 6.68 3.66 5.36 4 4 C2.35 3.67 0.7 3.34 -1 3 C-0.67 2.01 -0.34 1.02 0 0 Z " fill="#282826" transform="translate(783,191)"/>
<path d="M0 0 C0.8971875 0.309375 0.8971875 0.309375 1.8125 0.625 C1.5 2.5 1.5 2.5 0.8125 4.625 C-2.37512365 6.75008244 -4.45262223 7.1270163 -8.1875 7.625 C-8.1875 6.965 -8.1875 6.305 -8.1875 5.625 C-7.5275 5.625 -6.8675 5.625 -6.1875 5.625 C-6.084375 5.00625 -5.98125 4.3875 -5.875 3.75 C-4.85895141 0.60948619 -3.30129273 -0.5659359 0 0 Z " fill="#E7FAF9" transform="translate(64.1875,109.375)"/>
<path d="M0 0 C0.33 1.32 0.66 2.64 1 4 C0.01 4.33 -0.98 4.66 -2 5 C-1.34 6.65 -0.68 8.3 0 10 C-2.31 11.32 -4.62 12.64 -7 14 C-7 12.68 -7 11.36 -7 10 C-5.68 10 -4.36 10 -3 10 C-3.99 8.02 -4.98 6.04 -6 4 C-4.02 2.68 -2.04 1.36 0 0 Z " fill="#1E977C" transform="translate(110,84)"/>
<path d="M0 0 C0 2.31 0 4.62 0 7 C-3.465 8.485 -3.465 8.485 -7 10 C-7 9.01 -7 8.02 -7 7 C-5.68 7 -4.36 7 -3 7 C-3 6.01 -3 5.02 -3 4 C-5.31 4 -7.62 4 -10 4 C-6.86268382 1.90845588 -3.85464592 0 0 0 Z " fill="#23937B" transform="translate(142,16)"/>
<path d="M0 0 C0.66 0.33 1.32 0.66 2 1 C-1.61328125 5.6875 -1.61328125 5.6875 -3 7 C-3.99 7 -4.98 7 -6 7 C-5.34 7.66 -4.68 8.32 -4 9 C-6.64 9 -9.28 9 -12 9 C-12 8.34 -12 7.68 -12 7 C-11.21753906 6.57847656 -10.43507813 6.15695313 -9.62890625 5.72265625 C-8.61699219 5.17480469 -7.60507812 4.62695312 -6.5625 4.0625 C-5.55316406 3.51722656 -4.54382813 2.97195312 -3.50390625 2.41015625 C-1.13329507 1.22300532 -1.13329507 1.22300532 0 0 Z " fill="#1F967C" transform="translate(33,132)"/>
<path d="M0 0 C-5.28 3.3 -10.56 6.6 -16 10 C-16 9.01 -16 8.02 -16 7 C-15.34 7 -14.68 7 -14 7 C-14 6.34 -14 5.68 -14 5 C-13.34 5 -12.68 5 -12 5 C-11.67 4.01 -11.34 3.02 -11 2 C-9.2578125 1.015625 -9.2578125 1.015625 -7.125 0.25 C-6.42632812 -0.01296875 -5.72765625 -0.2759375 -5.0078125 -0.546875 C-3 -1 -3 -1 0 0 Z " fill="#23957C" transform="translate(95,90)"/>
<path d="M0 0 C0.66 0.66 1.32 1.32 2 2 C4.10820797 1.6814823 4.10820797 1.6814823 6 1 C3.35039045 4.63094642 0.98175544 6.89851796 -3 9 C-3.66 7.35 -4.32 5.7 -5 4 C-3.35 2.68 -1.7 1.36 0 0 Z " fill="#DAF7F3" transform="translate(135,74)"/>
<path d="M0 0 C-3.99456362 2.72669065 -7.58535678 3.75974292 -12.3125 4.6875 C-13.56675781 4.93886719 -14.82101563 5.19023438 -16.11328125 5.44921875 C-17.06589844 5.63097656 -18.01851562 5.81273437 -19 6 C-19.33 5.34 -19.66 4.68 -20 4 C-17.42032203 3.13310822 -14.83723873 2.28126211 -12.25 1.4375 C-11.52039063 1.19064453 -10.79078125 0.94378906 -10.0390625 0.68945312 C-9.33007812 0.46064453 -8.62109375 0.23183594 -7.890625 -0.00390625 C-6.91657715 -0.32597046 -6.91657715 -0.32597046 -5.92285156 -0.65454102 C-3.66555462 -1.06008636 -2.16526518 -0.69296911 0 0 Z " fill="#20937A" transform="translate(76,57)"/>
<path d="M0 0 C3.63 0 7.26 0 11 0 C8.26620224 1.36689888 6.02799303 2.39874174 3.1796875 3.2890625 C2.12974609 3.61777344 2.12974609 3.61777344 1.05859375 3.953125 C0.33800781 4.17484375 -0.38257812 4.3965625 -1.125 4.625 C-1.85332031 4.85445312 -2.58164063 5.08390625 -3.33203125 5.3203125 C-8.74102493 7 -8.74102493 7 -11 7 C-11 6.34 -11 5.68 -11 5 C-10.28972656 4.80664062 -9.57945313 4.61328125 -8.84765625 4.4140625 C-7.92855469 4.15367188 -7.00945312 3.89328125 -6.0625 3.625 C-4.68771484 3.24214844 -4.68771484 3.24214844 -3.28515625 2.8515625 C-0.83254913 2.23339896 -0.83254913 2.23339896 0 0 Z " fill="#22927B" transform="translate(107,21)"/>
<path d="M0 0 C1.32 0.66 2.64 1.32 4 2 C4 6.62 4 11.24 4 16 C3.34 16 2.68 16 2 16 C1.67 12.04 1.34 8.08 1 4 C0.01 4.33 -0.98 4.66 -2 5 C-1.34 3.35 -0.68 1.7 0 0 Z " fill="#DAF5F1" transform="translate(140,42)"/>
<path d="M0 0 C-1.65 0.33 -3.3 0.66 -5 1 C-5 1.66 -5 2.32 -5 3 C-3.35 2.67 -1.7 2.34 0 2 C-2.76223278 4.76223278 -5.20706617 4.57856291 -9 5 C-9 4.34 -9 3.68 -9 3 C-11.31 3.33 -13.62 3.66 -16 4 C-13.41588269 2.27725513 -11.45097344 1.31104478 -8.5625 0.3125 C-7.41974609 -0.09548828 -7.41974609 -0.09548828 -6.25390625 -0.51171875 C-3.78170279 -1.04729142 -2.37016716 -0.80445309 0 0 Z " fill="#C9F2ED" transform="translate(114,24)"/>
<path d="M0 0 C1.65 0.33 3.3 0.66 5 1 C3.07423885 3.43929746 1.19909405 5.80090595 -1 8 C-0.67 8.66 -0.34 9.32 0 10 C-0.66 10 -1.32 10 -2 10 C-2 10.99 -2 11.98 -2 13 C-2.99 12.67 -3.98 12.34 -5 12 C-4.649375 11.21625 -4.29875 10.4325 -3.9375 9.625 C-3.628125 8.75875 -3.31875 7.8925 -3 7 C-3.33 6.34 -3.66 5.68 -4 5 C-3.34 5 -2.68 5 -2 5 C-2 4.34 -2 3.68 -2 3 C-1.34 2.34 -0.68 1.68 0 1 C0 0.67 0 0.34 0 0 Z " fill="#191917" transform="translate(337,126)"/>
<path d="M0 0 C0.33 0.66 0.66 1.32 1 2 C1.99 1.34 2.98 0.68 4 0 C4.99 0.33 5.98 0.66 7 1 C4.71125827 2.33858524 2.41930344 3.67101014 0.125 5 C-0.52597656 5.3815625 -1.17695313 5.763125 -1.84765625 6.15625 C-6.7734375 9 -6.7734375 9 -9 9 C-9 8.01 -9 7.02 -9 6 C-7.35 6 -5.7 6 -4 6 C-4 5.34 -4 4.68 -4 4 C-3.34 4 -2.68 4 -2 4 C-2 3.34 -2 2.68 -2 2 C-1.34 2 -0.68 2 0 2 C0 1.34 0 0.68 0 0 Z " fill="#1A9278" transform="translate(25,126)"/>
<path d="M0 0 C0 0.99 0 1.98 0 3 C-1.98 3.33 -3.96 3.66 -6 4 C-6 4.99 -6 5.98 -6 7 C-6.99 6.67 -7.98 6.34 -9 6 C-8.49396008 3.83125748 -8.00016187 2.00032373 -7 0 C-2.52459016 -1.26229508 -2.52459016 -1.26229508 0 0 Z " fill="#069376" transform="translate(130,75)"/>
<path d="M0 0 C0 0.66 0 1.32 0 2 C-0.99 2 -1.98 2 -3 2 C-3 2.66 -3 3.32 -3 4 C-5.97 4.66 -8.94 5.32 -12 6 C-12 5.34 -12 4.68 -12 4 C-10.35 4 -8.7 4 -7 4 C-7 3.34 -7 2.68 -7 2 C-9.31 2 -11.62 2 -14 2 C-14 1.67 -14 1.34 -14 1 C-4.58997722 -0.14806378 -4.58997722 -0.14806378 0 0 Z " fill="#E6FCFB" transform="translate(83,33)"/>
<path d="M0 0 C-0.25 2.375 -0.25 2.375 -1 5 C-2.8125 6.375 -2.8125 6.375 -5 7 C-7.25 6.625 -7.25 6.625 -9 6 C-7.93344655 3.09121786 -7.32878952 2.16439476 -4.5 0.75 C-2 0 -2 0 0 0 Z " fill="#EDFCFC" transform="translate(50,119)"/>
<path d="M0 0 C-0.33 0.99 -0.66 1.98 -1 3 C-1.66 3 -2.32 3 -3 3 C-3 3.66 -3 4.32 -3 5 C-3.99 5 -4.98 5 -6 5 C-6 5.66 -6 6.32 -6 7 C-7.32 6.67 -8.64 6.34 -10 6 C-7.09167817 0.84433858 -5.91982852 -0.15578496 0 0 Z " fill="#F1FBFA" transform="translate(34,128)"/>
<path d="M0 0 C-0.66 1.65 -1.32 3.3 -2 5 C-2.99 5 -3.98 5 -5 5 C-5 5.66 -5 6.32 -5 7 C-5.66 7 -6.32 7 -7 7 C-7 4.69 -7 2.38 -7 0 C-3.86650268 -1.04449911 -3.01031744 -0.93423645 0 0 Z " fill="#FAFCFC" transform="translate(81,118)"/>
<path d="M0 0 C0 2 0 2 -1.25390625 3.515625 C-3.10869104 5.09239954 -4.66616978 5.89552644 -6.9375 6.75 C-7.94103516 7.14445312 -7.94103516 7.14445312 -8.96484375 7.546875 C-11.31647491 8.07046274 -12.73617523 7.74954377 -15 7 C-12.87767021 5.82823482 -10.75242209 4.66245215 -8.625 3.5 C-7.72007813 2.99919922 -7.72007813 2.99919922 -6.796875 2.48828125 C-2.2265625 0 -2.2265625 0 0 0 Z " fill="#D7F7F3" transform="translate(119,48)"/>
<path d="M0 0 C0 3.3 0 6.6 0 10 C-1.65 9.67 -3.3 9.34 -5 9 C-4.34 8.67 -3.68 8.34 -3 8 C-3 7.34 -3 6.68 -3 6 C-3.66 5.34 -4.32 4.68 -5 4 C-4.67 3.01 -4.34 2.02 -4 1 C-2 0 -2 0 0 0 Z " fill="#2B2B2B" transform="translate(729,47)"/>
<path d="M0 0 C0 0.66 0 1.32 0 2 C-1.2065625 2.433125 -1.2065625 2.433125 -2.4375 2.875 C-5.1326468 3.73262568 -5.1326468 3.73262568 -6 6 C-8.50390625 6.4140625 -8.50390625 6.4140625 -11.5625 6.625 C-12.57441406 6.69976562 -13.58632812 6.77453125 -14.62890625 6.8515625 C-15.41136719 6.90054688 -16.19382812 6.94953125 -17 7 C-14.03171001 5.02114001 -11.22552946 3.74135003 -7.9375 2.375 C-6.87402344 1.92898437 -5.81054688 1.48296875 -4.71484375 1.0234375 C-2 0 -2 0 0 0 Z " fill="#27957F" transform="translate(119,39)"/>
<path d="M0 0 C0 0.33 0 0.66 0 1 C-1.87387477 1.3396019 -3.74916697 1.67138691 -5.625 2 C-6.66914062 2.185625 -7.71328125 2.37125 -8.7890625 2.5625 C-11.90574865 2.98715797 -14.85930812 3.07545206 -18 3 C-17.34 2.67 -16.68 2.34 -16 2 C-16 1.34 -16 0.68 -16 0 C-10.39436958 -0.82622671 -5.57710648 -1.06795656 0 0 Z " fill="#1E9579" transform="translate(64,35)"/>
<path d="M0 0 C0 0.99 0 1.98 0 3 C-2.97 3.66 -5.94 4.32 -9 5 C-9.66 3.68 -10.32 2.36 -11 1 C-3.375 0 -3.375 0 0 0 Z " fill="#E3FAF7" transform="translate(105,27)"/>
<path d="M0 0 C-0.639375 0.12375 -1.27875 0.2475 -1.9375 0.375 C-2.618125 0.58125 -3.29875 0.7875 -4 1 C-4.33 1.66 -4.66 2.32 -5 3 C-10.01342137 5.25603962 -14.62449542 5.21502018 -20 5 C-16.44536741 3.02619647 -12.77184922 1.93925077 -8.875 0.8125 C-7.01488281 0.26529297 -7.01488281 0.26529297 -5.1171875 -0.29296875 C-2 -1 -2 -1 0 0 Z " fill="#D1F4F0" transform="translate(80,48)"/>
<path d="M0 0 C0.99 0.99 1.98 1.98 3 3 C2.19185349 4.33597652 1.37836819 5.668725 0.5625 7 C-0.11619141 8.11375 -0.11619141 8.11375 -0.80859375 9.25 C-1.20175781 9.8275 -1.59492188 10.405 -2 11 C-2.33 11 -2.66 11 -3 11 C-3.36923077 3.49230769 -3.36923077 3.49230769 -1.5 1 C-1.005 0.67 -0.51 0.34 0 0 Z " fill="#F2F2F0" transform="translate(271,75)"/>
<path d="M0 0 C0.99 0.33 1.98 0.66 3 1 C0.10414095 3.29648357 -2.8172031 5.04347557 -6.125 6.6875 C-7.42824219 7.34298828 -7.42824219 7.34298828 -8.7578125 8.01171875 C-11 9 -11 9 -13 9 C-13 8.34 -13 7.68 -13 7 C-11.35 6.67 -9.7 6.34 -8 6 C-8 5.34 -8 4.68 -8 4 C-6.02 3.67 -4.04 3.34 -2 3 C-2 2.34 -2 1.68 -2 1 C-1.34 0.67 -0.68 0.34 0 0 Z " fill="#229078" transform="translate(109,50)"/>
<path d="M0 0 C0.66 0.33 1.32 0.66 2 1 C0.71034824 2.37562854 -0.62689293 3.70766393 -2 5 C-2.66 5 -3.32 5 -4 5 C-4.33 5.66 -4.66 6.32 -5 7 C-7.32156597 7.40729228 -9.6568787 7.74438677 -12 8 C-10.54403132 5.08806263 -8.39161602 4.36133985 -5.5625 2.8125 C-4.57378906 2.26207031 -3.58507812 1.71164063 -2.56640625 1.14453125 C-1.71949219 0.76683594 -0.87257812 0.38914063 0 0 Z " fill="#D0F6F0" transform="translate(131,40)"/>
<path d="M0 0 C-1.28716647 1.00578589 -2.57988658 2.00446798 -3.875 3 C-4.95394531 3.8353125 -4.95394531 3.8353125 -6.0546875 4.6875 C-8 6 -8 6 -10 6 C-10.33 6.66 -10.66 7.32 -11 8 C-11 4 -11 4 -9.609375 2.48046875 C-8.99578125 2.05378906 -8.3821875 1.62710938 -7.75 1.1875 C-6.84507813 0.52814453 -6.84507813 0.52814453 -5.921875 -0.14453125 C-3.53134043 -1.20861066 -2.41448469 -0.87071019 0 0 Z " fill="#DDF7F4" transform="translate(65,134)"/>
<path d="M0 0 C-0.33 1.32 -0.66 2.64 -1 4 C-1.66 4 -2.32 4 -3 4 C-3.33 4.66 -3.66 5.32 -4 6 C-6.64860427 6.59355614 -9.29197322 6.74209269 -12 7 C-3.55172414 0 -3.55172414 0 0 0 Z " fill="#1F957C" transform="translate(54,121)"/>
<path d="M0 0 C1.41377341 2.63904371 2.37240135 5.07120629 3 8 C0.69 8.66 -1.62 9.32 -4 10 C-2.8905928 6.51329166 -1.73662334 3.22515763 0 0 Z " fill="#2A2A28" transform="translate(740,85)"/>
<path d="M0 0 C0.515625 0.2475 1.03125 0.495 1.5625 0.75 C1.5625 1.41 1.5625 2.07 1.5625 2.75 C-5.86607143 5.17857143 -5.86607143 5.17857143 -9.4375 3.75 C-3.0375 -0.31153846 -3.0375 -0.31153846 0 0 Z " fill="#2C2C2A" transform="translate(483.4375,73.25)"/>
<path d="M0 0 C0 0.66 0 1.32 0 2 C-4.35590568 3.62849969 -8.23934612 4.34118446 -12.875 4.625 C-14.02742188 4.69976562 -15.17984375 4.77453125 -16.3671875 4.8515625 C-17.23601563 4.90054688 -18.10484375 4.94953125 -19 5 C-15.58198514 3.06368617 -12.19643832 2.22900089 -8.375 1.375 C-7.22773437 1.11460938 -6.08046875 0.85421875 -4.8984375 0.5859375 C-2 0 -2 0 0 0 Z " fill="#CBF4EE" transform="translate(60,53)"/>
<path d="M0 0 C-1.55367366 1.01365893 -3.11837836 2.01042256 -4.6875 3 C-5.99267578 3.8353125 -5.99267578 3.8353125 -7.32421875 4.6875 C-10.16973337 6.08325608 -11.8788594 6.26993648 -15 6 C-11.57875892 3.02500775 -4.44240633 -2.22120316 0 0 Z " fill="#D2F5F0" transform="translate(69,75)"/>
<path d="M0 0 C3.125 -0.1875 3.125 -0.1875 6 0 C3.84545751 2.35716404 1.80280126 3.78966144 -1.0625 5.1875 C-2.10083984 5.70376953 -2.10083984 5.70376953 -3.16015625 6.23046875 C-5 7 -5 7 -7 7 C-7 6.34 -7 5.68 -7 5 C-6.21625 4.731875 -5.4325 4.46375 -4.625 4.1875 C-1.71885077 3.15185568 -1.71885077 3.15185568 0 0 Z " fill="#24947D" transform="translate(84,62)"/>
<path d="M0 0 C-2.28855702 0.86343731 -4.5801928 1.7159811 -6.875 2.5625 C-7.52597656 2.80935547 -8.17695312 3.05621094 -8.84765625 3.31054688 C-10.54497665 3.93173115 -12.27156776 4.47152252 -14 5 C-14.66 4.67 -15.32 4.34 -16 4 C-14 1 -14 1 -11.7578125 0.234375 C-10.45457031 -0.00539062 -10.45457031 -0.00539062 -9.125 -0.25 C-8.26132813 -0.42015625 -7.39765625 -0.5903125 -6.5078125 -0.765625 C-4.02366804 -0.99778803 -2.35380006 -0.76635351 0 0 Z " fill="#D3F6F0" transform="translate(78,55)"/>
<path d="M0 0 C-1 3 -1 3 -2.734375 4.1484375 C-5.2918845 5.10970831 -7.52945879 5.41022043 -10.25 5.625 C-11.14203125 5.69976563 -12.0340625 5.77453125 -12.953125 5.8515625 C-13.62859375 5.90054687 -14.3040625 5.94953125 -15 6 C-12.29954818 4.19969878 -9.93322119 3.06622934 -6.9375 1.875 C-6.05964844 1.52179687 -5.18179688 1.16859375 -4.27734375 0.8046875 C-2 0 -2 0 0 0 Z " fill="#23927B" transform="translate(132,20)"/>
<path d="M0 0 C0 2 0 2 -1.875 4.125 C-4 6 -4 6 -6 6 C-5.67 4.68 -5.34 3.36 -5 2 C-5.99 2.66 -6.98 3.32 -8 4 C-10.1875 3.625 -10.1875 3.625 -12 3 C-8.2080182 0.81231819 -4.37268114 0 0 0 Z " fill="#DFF8F5" transform="translate(55,117)"/>
<path d="M0 0 C-0.33 1.65 -0.66 3.3 -1 5 C-2.32 5 -3.64 5 -5 5 C-5.66 3.35 -6.32 1.7 -7 0 C-3.86650268 -1.04449911 -3.01031744 -0.93423645 0 0 Z " fill="#F4FDFC" transform="translate(87,114)"/>
<path d="M0 0 C-2.1875 2.0625 -2.1875 2.0625 -5 4 C-7.8125 3.75 -7.8125 3.75 -10 3 C-10 2.34 -10 1.68 -10 1 C-3.375 -1.125 -3.375 -1.125 0 0 Z " fill="#E9FAF9" transform="translate(98,110)"/>
<path d="M0 0 C0.66 0.33 1.32 0.66 2 1 C1.67 1.99 1.34 2.98 1 4 C1.66 4.66 2.32 5.32 3 6 C1.02 6.99 -0.96 7.98 -3 9 C-2.67 7.68 -2.34 6.36 -2 5 C-2.99 4.34 -3.98 3.68 -5 3 C-2.625 1.4375 -2.625 1.4375 0 0 Z " fill="#D5F6F2" transform="translate(41,121)"/>
<path d="M0 0 C1.2065625 0.0309375 1.2065625 0.0309375 2.4375 0.0625 C-0.83958863 3.73283927 -4.27772208 5.75531189 -8.5625 8.0625 C-8.2325 7.0725 -7.9025 6.0825 -7.5625 5.0625 C-6.9025 5.0625 -6.2425 5.0625 -5.5625 5.0625 C-5.0984375 4.1034375 -5.0984375 4.1034375 -4.625 3.125 C-3.05351796 0.07447605 -3.05351796 0.07447605 0 0 Z " fill="#25967D" transform="translate(94.5625,101.9375)"/>
<path d="M0 0 C1.32 0.33 2.64 0.66 4 1 C3.67 1.66 3.34 2.32 3 3 C2.34 3 1.68 3 1 3 C1 3.66 1 4.32 1 5 C-1.31 5.33 -3.62 5.66 -6 6 C-4.6875 4 -4.6875 4 -3 2 C-2.01 2 -1.02 2 0 2 C0 1.34 0 0.68 0 0 Z " fill="#F7FDFD" transform="translate(131,28)"/>
<path d="M0 0 C0 0.99 0 1.98 0 3 C-0.66 3 -1.32 3 -2 3 C-2 3.66 -2 4.32 -2 5 C-2.99 5 -3.98 5 -5 5 C-5.33 4.34 -5.66 3.68 -6 3 C-8.01669827 1.86649466 -8.01669827 1.86649466 -10 1 C-3.375 0 -3.375 0 0 0 Z " fill="#262624" transform="translate(780,129)"/>
<path d="M0 0 C0.66 0.33 1.32 0.66 2 1 C-0.59405119 3.87198525 -2.20339094 5.2881358 -6 6 C-7.3479743 6.63654342 -8.68596724 7.29605388 -10 8 C-7.1524798 3.94775971 -4.63339243 1.8130666 0 0 Z " fill="#353533" transform="translate(282,72)"/>
<path d="M0 0 C0.33 0.99 0.66 1.98 1 3 C0.01 3.33 -0.98 3.66 -2 4 C-2.33 4.66 -2.66 5.32 -3 6 C-5.375 7.1875 -5.375 7.1875 -8 8 C-8.99 7.67 -9.98 7.34 -11 7 C-7.37 4.69 -3.74 2.38 0 0 Z " fill="#2B947D" transform="translate(141,45)"/>
<path d="M0 0 C-3.36423277 2.96052484 -6.69159287 3.92289822 -11 5 C-10.67 3.68 -10.34 2.36 -10 1 C-6.61981469 -0.04005702 -3.5219721 -0.08004482 0 0 Z " fill="#219479" transform="translate(140,12)"/>
<path d="M0 0 C0.99 0 1.98 0 3 0 C4.55913346 3.11826692 3.66585225 5.67073874 3 9 C2.01 9.495 2.01 9.495 1 10 C-0.60725635 6.78548731 -0.05748185 3.56387464 0 0 Z " fill="#191917" transform="translate(843,193)"/>
<path d="M0 0 C0.33 1.32 0.66 2.64 1 4 C-0.98 5.32 -2.96 6.64 -5 8 C-5.66 7.34 -6.32 6.68 -7 6 C-4.69 4.02 -2.38 2.04 0 0 Z " fill="#24937C" transform="translate(141,75)"/>
<path d="M0 0 C0 0.99 0 1.98 0 3 C-1.98 3.33 -3.96 3.66 -6 4 C-6 2.68 -6 1.36 -6 0 C-3.50907189 -1.24546405 -2.58919267 -0.7767578 0 0 Z " fill="#282826" transform="translate(657,75)"/>
<path d="M0 0 C2.45823172 3.68734758 3.01242616 6.69699971 4 11 C2.68 10.34 1.36 9.68 0 9 C0 6.03 0 3.06 0 0 Z " fill="#E0E0DE" transform="translate(811,199)"/>
<path d="M0 0 C1.32 0 2.64 0 4 0 C3.8125 1.875 3.8125 1.875 3 4 C0.4375 5.25 0.4375 5.25 -2 6 C-1.49396008 3.83125748 -1.00016187 2.00032373 0 0 Z " fill="#E7FCFB" transform="translate(95,89)"/>
<path d="M0 0 C2.0625 0.4375 2.0625 0.4375 4 1 C2.21118264 2.00508801 0.41885304 3.00392736 -1.375 4 C-2.37273437 4.556875 -3.37046875 5.11375 -4.3984375 5.6875 C-7 7 -7 7 -9 7 C-9 6.01 -9 5.02 -9 4 C-8.43410156 3.79503906 -7.86820312 3.59007813 -7.28515625 3.37890625 C-6.55167969 3.10949219 -5.81820312 2.84007813 -5.0625 2.5625 C-4.33160156 2.29566406 -3.60070312 2.02882813 -2.84765625 1.75390625 C-1.01694322 1.14613052 -1.01694322 1.14613052 0 0 Z " fill="#D5F8F3" transform="translate(76,82)"/>
<path d="M0 0 C0.66 0.33 1.32 0.66 2 1 C0.625 2.5 0.625 2.5 -1 4 C-1.66 4 -2.32 4 -3 4 C-3.33 4.99 -3.66 5.98 -4 7 C-5.32 6.34 -6.64 5.68 -8 5 C-6.71475739 4.13619741 -5.42157581 3.28419631 -4.125 2.4375 C-3.04605469 1.72400391 -3.04605469 1.72400391 -1.9453125 0.99609375 C-1.30335937 0.66738281 -0.66140625 0.33867188 0 0 Z " fill="#24967E" transform="translate(88,77)"/>
<path d="M0 0 C-3.96 1.98 -7.92 3.96 -12 6 C-11.67 5.01 -11.34 4.02 -11 3 C-10.34 3 -9.68 3 -9 3 C-9 2.34 -9 1.68 -9 1 C-3.375 -1.125 -3.375 -1.125 0 0 Z " fill="#D9F9F6" transform="translate(92,76)"/>
<path d="M0 0 C0.66 0.33 1.32 0.66 2 1 C-2.36363636 5.72727273 -2.36363636 5.72727273 -5.1875 6.9375 C-5.785625 6.958125 -6.38375 6.97875 -7 7 C-7.66 6.34 -8.32 5.68 -9 5 C-7.54735962 4.1361871 -6.0876837 3.28419546 -4.625 2.4375 C-3.40683594 1.72400391 -3.40683594 1.72400391 -2.1640625 0.99609375 C-1.44992188 0.66738281 -0.73578125 0.33867188 0 0 Z " fill="#D5F5F1" transform="translate(90,62)"/>
<path d="M0 0 C-0.33 1.65 -0.66 3.3 -1 5 C-3.64 4.67 -6.28 4.34 -9 4 C-7.68 3.67 -6.36 3.34 -5 3 C-5 2.34 -5 1.68 -5 1 C-3 0 -3 0 0 0 Z " fill="#039576" transform="translate(73,112)"/>
<path d="M0 0 C3.26460973 1.80412643 4.88929795 2.83394693 7 6 C6.34 6.66 5.68 7.32 5 8 C2.20127563 5.47211993 0.54226981 3.79588866 0 0 Z " fill="#252524" transform="translate(783,76)"/>
<path d="M0 0 C-2.22825644 2.22825644 -3.65761628 2.69239369 -6.625 3.625 C-7.44226563 3.88539062 -8.25953125 4.14578125 -9.1015625 4.4140625 C-9.72804688 4.60742188 -10.35453125 4.80078125 -11 5 C-11 4.01 -11 3.02 -11 2 C-7.17679443 0.57741188 -4.08718695 -0.24042276 0 0 Z " fill="#298F78" transform="translate(16,73)"/>
<path d="M0 0 C0.66 0 1.32 0 2 0 C2 2.64 2 5.28 2 8 C1.34 8 0.68 8 0 8 C-0.66 6.02 -1.32 4.04 -2 2 C-1.34 1.34 -0.68 0.68 0 0 Z " fill="#3C9F89" transform="translate(140,62)"/>
<path d="M0 0 C-2.75924185 1.80411967 -3.88972103 2.0127245 -7.25 1.625 C-8.1575 1.41875 -9.065 1.2125 -10 1 C-10 0.34 -10 -0.32 -10 -1 C-5.94568308 -2.15837626 -3.78187881 -1.83691257 0 0 Z " fill="#15937A" transform="translate(66,43)"/>
<path d="M0 0 C1.98 0.495 1.98 0.495 4 1 C4.33 2.32 4.66 3.64 5 5 C3.35 5.33 1.7 5.66 0 6 C-1.125 2.25 -1.125 2.25 0 0 Z " fill="#049276" transform="translate(107,29)"/>
<path d="M0 0 C0 0.66 0 1.32 0 2 C-1.32 2 -2.64 2 -4 2 C-4.33 3.65 -4.66 5.3 -5 7 C-5.33 6.01 -5.66 5.02 -6 4 C-6.99 3.67 -7.98 3.34 -9 3 C-3 0 -3 0 0 0 Z " fill="#1C957A" transform="translate(117,26)"/>
<path d="M0 0 C0.99 1.32 1.98 2.64 3 4 C-1.625 6.125 -1.625 6.125 -5 5 C-3.35 3.35 -1.7 1.7 0 0 Z " fill="#E0F9F7" transform="translate(141,58)"/>
<path d="M0 0 C1.60031344 3.20062687 0.03173691 5.72271806 -1 9 C-1.33 8.34 -1.66 7.68 -2 7 C-2.66 7 -3.32 7 -4 7 C-2.92598892 4.08482708 -2.22189824 2.22189824 0 0 Z " fill="#2F2F2D" transform="translate(701,46)"/>
<path d="M0 0 C0 0.66 0 1.32 0 2 C-1.98 2.33 -3.96 2.66 -6 3 C-6 2.34 -6 1.68 -6 1 C-6.66 0.67 -7.32 0.34 -8 0 C-4.71023192 -1.09658936 -3.28696233 -0.79953138 0 0 Z " fill="#F5FCFD" transform="translate(93,46)"/>
<path d="M0 0 C0.99 0.33 1.98 0.66 3 1 C3 1.99 3 2.98 3 4 C1.02 4.33 -0.96 4.66 -3 5 C-3.33 4.34 -3.66 3.68 -4 3 C-3.34 3 -2.68 3 -2 3 C-2 2.34 -2 1.68 -2 1 C-1.34 0.67 -0.68 0.34 0 0 Z " fill="#059474" transform="translate(133,34)"/>
<path d="M0 0 C1.32 0.33 2.64 0.66 4 1 C3.67 2.32 3.34 3.64 3 5 C1.35 5 -0.3 5 -2 5 C-1.34 3.35 -0.68 1.7 0 0 Z " fill="#1C1C1A" transform="translate(821,217)"/>
<path d="M0 0 C1.98 0 3.96 0 6 0 C5.67 1.32 5.34 2.64 5 4 C2.03 3.505 2.03 3.505 -1 3 C-0.67 2.01 -0.34 1.02 0 0 Z " fill="#363634" transform="translate(398,129)"/>
<path d="M0 0 C0.33 0.66 0.66 1.32 1 2 C1.99 2.33 2.98 2.66 4 3 C2.35 3.66 0.7 4.32 -1 5 C-1 4.34 -1 3.68 -1 3 C-2.32 3.33 -3.64 3.66 -5 4 C-3.36587557 2.29159719 -2.13093906 1.06546953 0 0 Z " fill="#CDF4ED" transform="translate(109,80)"/>
<path d="M0 0 C0 0.66 0 1.32 0 2 C0.99 2.33 1.98 2.66 3 3 C1.02 3.66 -0.96 4.32 -3 5 C-3 4.34 -3 3.68 -3 3 C-4.32 2.67 -5.64 2.34 -7 2 C-2.25 0 -2.25 0 0 0 Z " fill="#C3EEE8" transform="translate(127,18)"/>
<path d="M0 0 C0.66 0.33 1.32 0.66 2 1 C2 3.31 2 5.62 2 8 C0.68 7.01 -0.64 6.02 -2 5 C-1.34 3.35 -0.68 1.7 0 0 Z " fill="#292929" transform="translate(618,129)"/>
<path d="M0 0 C1.32 0.33 2.64 0.66 4 1 C-2.75 5 -2.75 5 -5 5 C-5 4.01 -5 3.02 -5 2 C-3.35 2 -1.7 2 0 2 C0 1.34 0 0.68 0 0 Z " fill="#D1F5F1" transform="translate(32,105)"/>
<path d="M0 0 C1.65 0 3.3 0 5 0 C4.34 1.65 3.68 3.3 3 5 C2.01 4.67 1.02 4.34 0 4 C0 2.68 0 1.36 0 0 Z " fill="#F5FBFB" transform="translate(106,96)"/>
<path d="M0 0 C0 0.66 0 1.32 0 2 C-2.97 3.32 -5.94 4.64 -9 6 C-9.66 5.34 -10.32 4.68 -11 4 C-9.5437455 3.32880451 -8.08492133 2.66318193 -6.625 2 C-5.81289063 1.62875 -5.00078125 1.2575 -4.1640625 0.875 C-2 0 -2 0 0 0 Z " fill="#C7EEE8" transform="translate(26,93)"/>
<path d="M0 0 C-1.65 0.33 -3.3 0.66 -5 1 C-5 1.66 -5 2.32 -5 3 C-6.65 2.67 -8.3 2.34 -10 2 C-6.80505194 -1.19494806 -4.22040044 -1.35655728 0 0 Z " fill="#2F2F2E" transform="translate(636,74)"/>
<path d="M0 0 C-0.99 1.485 -0.99 1.485 -2 3 C-4.625 3.1875 -4.625 3.1875 -7 3 C-6.67 2.01 -6.34 1.02 -6 0 C-3 -1 -3 -1 0 0 Z " fill="#E0FAF8" transform="translate(134,17)"/>
<path d="M0 0 C0.99 0 1.98 0 3 0 C3 0.66 3 1.32 3 2 C-2.75 5 -2.75 5 -5 5 C-5 4.01 -5 3.02 -5 2 C-3.35 2 -1.7 2 0 2 C0 1.34 0 0.68 0 0 Z " fill="#2A9981" transform="translate(21,130)"/>
<path d="M0 0 C1.32 0.66 2.64 1.32 4 2 C2.74458443 4.51083114 1.49936512 4.87125446 -1 6 C-0.67 4.02 -0.34 2.04 0 0 Z " fill="#3E3E3C" transform="translate(298,114)"/>
<path d="M0 0 C2.97 0.495 2.97 0.495 6 1 C5.01 1.495 5.01 1.495 4 2 C4 2.66 4 3.32 4 4 C2.35 3.67 0.7 3.34 -1 3 C-0.67 2.01 -0.34 1.02 0 0 Z " fill="#029576" transform="translate(93,97)"/>
<path d="M0 0 C0 2 0 4 0 6 C-2.31 5.67 -4.62 5.34 -7 5 C-2.25 1.125 -2.25 1.125 0 0 Z " fill="#22977E" transform="translate(97,72)"/>
<path d="M0 0 C2 0.6875 2 0.6875 4 2.6875 C1.36 2.6875 -1.28 2.6875 -4 2.6875 C-4 2.0275 -4 1.3675 -4 0.6875 C-2 -0.3125 -2 -0.3125 0 0 Z " fill="#249076" transform="translate(25,138.3125)"/>
<path d="M0 0 C2.15377564 2.62198774 3.40072174 4.64404172 4 8 C2.35 7.01 0.7 6.02 -1 5 C-0.67 3.35 -0.34 1.7 0 0 Z " fill="#2B2B2A" transform="translate(509,80)"/>
<path d="M0 0 C0 0.99 0 1.98 0 3 C-2.375 3.625 -2.375 3.625 -5 4 C-5.66 3.34 -6.32 2.68 -7 2 C-4.35261084 0.5393715 -3.10551666 0 0 0 Z " fill="#31312F" transform="translate(565,73)"/>
<path d="M0 0 C0 0.33 0 0.66 0 1 C-1.65 1 -3.3 1 -5 1 C-5 1.66 -5 2.32 -5 3 C-7.97 2.505 -7.97 2.505 -11 2 C-6.99642627 -0.14477164 -4.43233175 -1.47744392 0 0 Z " fill="#2D9983" transform="translate(53,64)"/>
</svg>
